<mxfile host="app.diagrams.net" agent="Mozilla/5.0 (X11; Linux x86_64) AppleWebKit/537.36 (KHTML, like Gecko) Chrome/131.0.0.0 Safari/537.36" version="26.0.4">
  <diagram name="Page-1" id="vR8dK6pMeseoNfCjqG_F">
    <mxGraphModel dx="2970" dy="1295" grid="1" gridSize="10" guides="1" tooltips="1" connect="1" arrows="1" fold="1" page="1" pageScale="1" pageWidth="827" pageHeight="1169" math="0" shadow="0">
      <root>
        <mxCell id="0" />
        <mxCell id="1" parent="0" />
        <mxCell id="XVMjXSrSxOzAq-W35Vz7-1" value="Flujo de estados Aleph para Madero" style="text;html=1;align=center;verticalAlign=middle;whiteSpace=wrap;rounded=0;fontSize=64;fontStyle=1;fillColor=#fff2cc;strokeColor=#d6b656;" parent="1" vertex="1">
          <mxGeometry x="-720" y="320" width="480" height="360" as="geometry" />
        </mxCell>
        <mxCell id="XVMjXSrSxOzAq-W35Vz7-2" value="DRAFT" style="text;html=1;align=center;verticalAlign=middle;resizable=0;points=[];autosize=1;strokeColor=#b85450;fillColor=#f8cecc;fontSize=64;" parent="1" vertex="1">
          <mxGeometry x="-590" y="650" width="240" height="90" as="geometry" />
        </mxCell>
        <mxCell id="XVMjXSrSxOzAq-W35Vz7-3" value="" style="group" parent="1" vertex="1" connectable="0">
          <mxGeometry x="20" y="360" width="295" height="160" as="geometry" />
        </mxCell>
        <mxCell id="XVMjXSrSxOzAq-W35Vz7-4" value="" style="rounded=0;whiteSpace=wrap;html=1;" parent="XVMjXSrSxOzAq-W35Vz7-3" vertex="1">
          <mxGeometry width="295" height="160" as="geometry" />
        </mxCell>
        <mxCell id="XVMjXSrSxOzAq-W35Vz7-5" value="CardRead" style="text;html=1;align=right;verticalAlign=middle;whiteSpace=wrap;rounded=0;" parent="XVMjXSrSxOzAq-W35Vz7-3" vertex="1">
          <mxGeometry x="112" y="10" width="170" height="30" as="geometry" />
        </mxCell>
        <mxCell id="XVMjXSrSxOzAq-W35Vz7-6" value="000" style="text;html=1;align=left;verticalAlign=middle;whiteSpace=wrap;rounded=0;fontSize=23;" parent="XVMjXSrSxOzAq-W35Vz7-3" vertex="1">
          <mxGeometry x="15" y="20" width="86" height="20" as="geometry" />
        </mxCell>
        <mxCell id="XVMjXSrSxOzAq-W35Vz7-8" value="" style="group" parent="1" vertex="1" connectable="0">
          <mxGeometry x="460" y="360" width="295" height="160" as="geometry" />
        </mxCell>
        <mxCell id="XVMjXSrSxOzAq-W35Vz7-9" value="" style="rounded=0;whiteSpace=wrap;html=1;" parent="XVMjXSrSxOzAq-W35Vz7-8" vertex="1">
          <mxGeometry width="295" height="160" as="geometry" />
        </mxCell>
        <mxCell id="XVMjXSrSxOzAq-W35Vz7-10" value="TransactionMenu" style="text;html=1;align=right;verticalAlign=middle;whiteSpace=wrap;rounded=0;" parent="XVMjXSrSxOzAq-W35Vz7-8" vertex="1">
          <mxGeometry x="110" y="10" width="170" height="30" as="geometry" />
        </mxCell>
        <mxCell id="XVMjXSrSxOzAq-W35Vz7-11" value="001" style="text;html=1;align=left;verticalAlign=middle;whiteSpace=wrap;rounded=0;fontSize=23;" parent="XVMjXSrSxOzAq-W35Vz7-8" vertex="1">
          <mxGeometry x="15" y="20" width="86" height="20" as="geometry" />
        </mxCell>
        <mxCell id="XVMjXSrSxOzAq-W35Vz7-12" value="Cancel 322" style="text;html=1;align=left;verticalAlign=middle;whiteSpace=wrap;rounded=0;fontColor=#CC6600;" parent="XVMjXSrSxOzAq-W35Vz7-8" vertex="1">
          <mxGeometry x="20" y="80" width="170" height="30" as="geometry" />
        </mxCell>
        <mxCell id="XVMjXSrSxOzAq-W35Vz7-13" value="Timeout 324" style="text;html=1;align=left;verticalAlign=middle;whiteSpace=wrap;rounded=0;fontColor=#990000;" parent="XVMjXSrSxOzAq-W35Vz7-8" vertex="1">
          <mxGeometry x="20" y="100" width="170" height="30" as="geometry" />
        </mxCell>
        <mxCell id="XVMjXSrSxOzAq-W35Vz7-14" value="DeviceError 323" style="text;html=1;align=left;verticalAlign=middle;whiteSpace=wrap;rounded=0;fontColor=#990000;" parent="XVMjXSrSxOzAq-W35Vz7-8" vertex="1">
          <mxGeometry x="20" y="120" width="170" height="30" as="geometry" />
        </mxCell>
        <mxCell id="XVMjXSrSxOzAq-W35Vz7-16" value="Dep. efvo" style="text;html=1;align=center;verticalAlign=middle;whiteSpace=wrap;rounded=0;fontFamily=Comic Sans MS;fontColor=#0000FF;fontStyle=1;fontSize=23;" parent="1" vertex="1">
          <mxGeometry x="730" y="140" width="200" height="30" as="geometry" />
        </mxCell>
        <mxCell id="XVMjXSrSxOzAq-W35Vz7-32" value="" style="group" parent="1" connectable="0" vertex="1">
          <mxGeometry x="1820" y="120" width="295" height="160" as="geometry" />
        </mxCell>
        <mxCell id="XVMjXSrSxOzAq-W35Vz7-33" value="" style="rounded=0;whiteSpace=wrap;html=1;" parent="XVMjXSrSxOzAq-W35Vz7-32" vertex="1">
          <mxGeometry width="295" height="160" as="geometry" />
        </mxCell>
        <mxCell id="XVMjXSrSxOzAq-W35Vz7-34" value="CashAccept" style="text;html=1;align=right;verticalAlign=middle;whiteSpace=wrap;rounded=0;" parent="XVMjXSrSxOzAq-W35Vz7-32" vertex="1">
          <mxGeometry x="110" y="10" width="170" height="30" as="geometry" />
        </mxCell>
        <mxCell id="XVMjXSrSxOzAq-W35Vz7-35" value="100" style="text;html=1;align=left;verticalAlign=middle;whiteSpace=wrap;rounded=0;fontSize=23;" parent="XVMjXSrSxOzAq-W35Vz7-32" vertex="1">
          <mxGeometry x="15" y="20" width="86" height="20" as="geometry" />
        </mxCell>
        <mxCell id="XVMjXSrSxOzAq-W35Vz7-36" value="Cancel 317" style="text;html=1;align=left;verticalAlign=middle;whiteSpace=wrap;rounded=0;fontColor=#CC6600;" parent="XVMjXSrSxOzAq-W35Vz7-32" vertex="1">
          <mxGeometry x="20" y="80" width="170" height="30" as="geometry" />
        </mxCell>
        <mxCell id="XVMjXSrSxOzAq-W35Vz7-37" value="Timeout 316" style="text;html=1;align=left;verticalAlign=middle;whiteSpace=wrap;rounded=0;fontColor=#990000;" parent="XVMjXSrSxOzAq-W35Vz7-32" vertex="1">
          <mxGeometry x="20" y="100" width="170" height="30" as="geometry" />
        </mxCell>
        <mxCell id="XVMjXSrSxOzAq-W35Vz7-38" value="DeviceError 318" style="text;html=1;align=left;verticalAlign=middle;whiteSpace=wrap;rounded=0;fontColor=#990000;" parent="XVMjXSrSxOzAq-W35Vz7-32" vertex="1">
          <mxGeometry x="20" y="120" width="170" height="30" as="geometry" />
        </mxCell>
        <mxCell id="XVMjXSrSxOzAq-W35Vz7-39" value="" style="shape=image;verticalLabelPosition=bottom;labelBackgroundColor=default;verticalAlign=top;aspect=fixed;imageAspect=0;image=data:image/png,iVBORw0KGgoAAAANSUhEUgAAAYsAAAIDCAYAAAD16zKjAAAACXBIWXMAAA7EAAAOxAGVKw4bAAAACnRFWHRsb2dpY2FsWAAwZeNEqwAAAAp0RVh0bG9naWNhbFkAMGQhLpwAAAANdEVYdHNjcmVlbgBIRE1JLTB8/vG0AAAgAElEQVR4XuzdQWwbV54u+k9JPFGidFy6PS0rc2egYnDxokUMlYA3sPA2LMUXcDZjloB34fbFA1h6Y6AHd0NqdRvd80BqkUzftyG1mUGjfR8p3EE7wVuQSm9i4Dosrq6EeQBLiBb2XZgl9HRGUk+apcSymXbi8xalc1RVpFSyTdmO/f0AQdI5p04Vi4fnX+ecIjkkhBAgIiI6wkvxBCIiojgGCyIiSsRgQUREiRgsiIgoEYMFERElYrAgIqJEDBZERJTolXjCSfI8D1tbW9ja2sLu7i4A4MyZMxgfH4eu69A0LbYFERE9C4aexJvyHMfB2toaut0uAGB4eBjDw8MAAN/3VbmpqSmYpsmgQUT0jDnRYLG1tYWPP/4Yvu9jfHwc77zzDra2tjA5OQnDMFQ5z/Owvr4O13UxPDyMdDqNmZmZUE1ERPQ0nViwcF0X169fR7fbRSaTwdbWFt5//32V5/s+DMNQo4hut4tPP/0Ut27dQrfbhWmaSKfT4SqJiOgpOZFgsbW1heXlZQwPD2N8fByXLl2C53kAAF3XAQTTT6urqzAMQ+XJ0Ua9Xsfm5iZ+8pOfcEqKiOgZMPC7obrdLj7++GMMDw8jm83izJkzAIIgIYOCNDw8jOvXr0PXdczMzKi1DMuykMvlnslA0e124fu+Wn9JIsufhIc5DqLnleM4cBwnnnxsnufBsqwTe50+LwZ+N9Tq6ip838elS5d6Ovvx8XGsrq7C8zy89dZbmJmZgWmaqNfreP/999Wit/zteR5u3ryppq8O43kems1mPBkA8M4772ByclIdi+u6WF9fj5UKvPrqqz3rKdLq6irW1tYiDWp8fBznzp3rKd/tdlV52ZlrmoaJiYnI45SB9ShTU1OR+uWIbH19PVL3O++8A9M0Vd1AcMy3bt3C8PAwLl26pNLDeWfOnFHn99NPP8X29naknHTmzBnMzMz0PKc0OI7joFgsRtIMw0A+n1cjcupVrVaxubkJ0zTjWcfiui5WVlbguu4j1/EiGGiw6Ha7WF9fx+TkJCYnJyN53v5ts9vb27AsK9KpmaaJ1dVV9UR5ngfHcbC5uQkgeMGMj4+r8nG+7/eMWiTP87C2toaf/OQnGB4ePrIsALVmEl5g//TTT7G2thYqFdja2sLKygp2d3cj6yvLy8vY2toKlQyO0fd9Nb02PDyMbrd75LEAwMTEhPpbTu/FRxO+72NtbQ23bt1Sdcvynuf17eBlXjxNnvM4b/8mBE4Nnhxv/6Kn0WgACJ7XxcVFrKysoNVq8byfEMuycAKz8c+dgQaLmzdvwvd9ZDIZlba1tQXHcaDrugoK3W43Eiw0TVNTUv/yL/+Czc1NaJqGCxcu4Pr167h169aRwSIsk8moF9WtW7fUSMd13Z47rLLZrPq72+3i+vXr8H0fzWYThmFgeHgYruuqQGEYBi5cuKCCzscff6we38TEhJpqk4Eim82qK8LV1VVVf79jMU0Tp0+fjqQBwehF+vjjj9HtdqFpGjKZTN+619bWHvvGAF3XI3XITqzb7cJxHFiWFSpNgxa+ujVNE6Ojo6jX67BtG0AQRMrlspp6sW1b5UnFYlHdSGJZFmzbhqZp8H0f+XwexWIxMlpxXRflchnValVtbxgGfN9HvV5X9eTz+WPt33EcVKtVdbEij0HK5/OwLAuO46jj7FdPXLjeVCqFQqEQLwIgKFcul+H7vip32OhMPvZyuQxN09Q50HX9yDrkeQgfvzxHh9UlzysAdQ4Pq7/fYw3ne56n9g/0fx4GaaBrFt7+laqu63BdF59++ilGR0dhmqZ6kIZhYHV1VW0jO6Bms4nV1VUMDQ3h0qVLyOVymJmZwfj4uKr3OHRdVz8XLlxQnW38Sh+Ilp2cnFQdZLfbVVfvMlDIDloGOU3TkM1m1f9yGsz3g2kqTdPUYwaAmZkZGIYRGSmETUxMwDCMnh95/LJBAkFAjNedTqehaRpu3ryp0h/V6dOnI+fGNE1MTU0BwKHTVHQy4qMJz/MwPT2NZrOpOqfFxUVMT0+rMvl8HsvLyzBNE5ZlYWlpCXNzcwCC9rm8vNzzmpLpkuM4WFhYwPLyMizLUvuZm5vD7OwsNjc3Yds2dF3H/Pw8yuWy2rZYLGJ2dhapVAr2fpCKl6nX65ifn8fm5iYsy4JpmlhYWMDCwoIqE1ev1yP7npiYwNzcXM+0crFYxNzcHKanp2HbNoQQSKVSqNfrkXKSfOzy9SUf+8LCgnrsjuNgdnZWlZHPQ/w8z8/P99Qlz//o6Kja5/T0NJaWlmCapjrG2dlZ9bzIxyrPoe/7kf27rovp6Wmsr68f2g4GbaAjC9/3MTw8jI8//ljN5V+/fj1SZnh4WF3hyKv2brcLXQ/ewS07PenMmTO4detWqIYnQ04TySBz7ty5WImgzNTUFNbW1nqCke8HV2SGYaiOPTziivP9YJoqTp4LGQTku93jTNOEeYLzrTJ4hkeEdPLkGoZ8bovFIkzTRKVSUWVs20YqlUK5XEY+n0ez2UQ2m0U+nwcQXKAtLi6q8g9DTokBQT2zs7OwbVvt396/kl1aWlKjjsXFRZTLZeRyOVXGtm3Mzc3B3g8esr7w49A0DQsLCygUCj1BEgAWFhYi+waCuqenp9XVuud5WFxcRKvVUml2KKgdd1SsaRoajYY6DsuykEql4OyPrOXz0mg01Osxn89jdnZ2v4YDnueh1WqpctVqFb7vR7a1bRuzs7OYn59Ho9GA67owDEONnCzLwtzcnFpXmZubg2VZkXNhWRamp6dRLBbV8Q3SQIPF7u6uulVWis8FdrvB3UFLS0sAgqv7dDoNXdfR7XZ7plE0TeuZoz/K1taW6nRv3rypOvF+01jO/jAaCDprGZRMM1goDnfe/bYHDtLlaGRychLNZhO+72N9fV1d9ei6rkYP/V4IKysr8SQAUI1FfjxKfNutra2e89MvmDyM7e3tyLnxPE+tZTzuFBclk8+ffM6r1apKW1lZQT6fjzw/QNDxyraWyWSwvLwMXQ9GhY96IRG/uJGdb3j6FgheL3JUIqdEdF3vOUZ5ASUDTLwtWZaFhYUFeJ6n9iU5jgPP81QAknRdRyaTUe2zXq9D13X4vh/Zv0zzPE+dy6PEX6f6/utXXvmvr6/3jPABIJfL9Tzu8AUjcHCMnuep+oDgZhZ5Hk3TxOLiIubn55HNZmGapgrcruvC87ye50Gei/hIa1AGGiz6kdNIw8PD6i4emZ5OpyML4cPDwz3Bpd/V9lH63V2kaVrPgjtwMHUUJo/rUQ0PB7cMN5tNeJ6njl82jLW1NVy6dKmnkcWDQJwMCK+++mokXb5DPuywedzj2toKPr8rLt7o6WQ4TjCPPzc3h0ajEenofT+YJ5dz4WHyuSnur0csLy9jfn5eXaEe96pairfJ+P/9yM5PjmrCdD2YPZAOqy/ensOS2p8MCPPz8/Es6PsB4ziSjq3T6fQt0+/44mnyQrLfMco6TdNEq9VCuVzG3NwcNC2Y9g6PGOL1yrR+/dogDDRYnDlzRl0NSXJaqtsNFrVN01RTOmtra3078W43uPV0e3sbvh9MbR3X+Pi46lCHh4fx1ltv4dy5c33rCF85bW5uwnVdbG1todlsIp1OR7Y5rJGF02V5TQvWN2T+1tYWbt26Bdd10e0GC+k/+clP1HZA7zpEnKz7m2++iaRPTk7i3r172N3dVS/U44iPRsJ0XVdrFN1ucMeWPP6pqakjj5Men67r0HUd2WwW8/PzkTuhJiYmkM/nezpjz/MinZec+vH9YBQ/Pz8P0zRVmXh7liOCxyVHBPG7t3w/mGZ91LYjt5PTMGGe52FoaAjAQUBqt9uRMo+7/7hUKtX3nPVLizMMA0NDQ5EpPqD3OTEMQ10UyDUe0zTVOXZdt+fxOI4TWRsZpJfiCY9D0zQ1LeJ5HqrVqgoUMzMzyOVyqhOWawLhTqvbDdYI5N1Ily5dQrfbPXQKqJ9Lly6pF8qPf/zjnk4/zDAOFpIzmYxafJbrA8PDwfoKEAw7+wlPMwHBE1iv19VQVNOCUU0mk8GFCxcA9F9sTyKPzfO8yDm7cOECLMtSnXuYfNz9AkO/NOn06dPqvMzMzESuSB/l2OnRFItF+H4wkpBs28bS0lLkwqBer6v5dAAYHR1VC8WaFqwDyo5I0zQYhhFZzJYBZRBku4mvkRT3F70fla4HU2pymkoqFouRK2nZVsNX4L7vY35+Xi3yD0I2m8XKykrkufE871jnUS6Yh58DzwsWzOXzls/nMT09rZ43GSB934emaTD3p6nC56JcLqPZbD72zMJhBjqymJycxNraGn75y1/C94MRgWkGd9K4bvAhgWHvvPOOWsgJz3XKN9HJ9YfHmRZ6GJqmYXNzM9KRTk1NqSklOeKQHMdRT2b4Snx9fR3Dw8MwjOi8Z/gFGyevfOJkYJXnttvtYmVlBRcuXFD1yAAbJ/Nl8JYBzfeD93sAh6/FhIWft6OCDA2WruvI5XJYWlpSi7TFYhG7u7tIpVJIp9PY3d2F67ooFouqoyyVSmpEAgQXNMViUbWHSqWCubk5pFIpTExMYH19HYZx8LE7j6tWq2F2dhb1el3N8+/u7vZcST+sSqWC2dlZTE9PY2pqCp7nYXR0FJlMJrKm12g0MDc3h+XlZfX4ZPqg2LaNzc1NdccYEHT4hUIhcXRhmiaKxSLs0GK9fA5KpRKAIFisrKxgeno68hjkqEKe4/C52N3dRblcVmUGbaDBQtd11bFcuHABhhG8VwEIOpxwhyWF38MwPBy8r0GSt9jGt3mSZmZmcOvWLWxtBe+ncF03MoICgg5XPkGGYaj3JCwtLeGdd97B8PAwtre31VV5vyfzsAVuXQ+mI3Q9uBGg2Wzi5s2b8DwP4+PjajQGBOc43JkbhqHedS4XPLvd6MeP9LvLq5943TR4ZmgRU8rn8z3TLqVSCdlsVr1WLMuKXIDYtg3TNOG6we3W+v5VuWQYhrrjxveD908A0SkU+T6BuEaj0dN+48et6zra7bZ6fwbQe4zVarWnHtmhx9OleL3yccU7Z8Mw0Gq11MVc/PHHyfOh7/cz+Xy+72MP32gABGuD2WxWjegsy+oJuIfVJbc97Dk67LFKmqapxyj3GT/HgzbwDxL0/WCY1I/jODAMA74ffGTFW2+9hTNnzmB4eFg9Caurq5icnFQdnGEEU0RHcd3g7fpAcDfCYfsHgmOQV+Hx4Zp8c9vw8HDkncq+H7xRL94ogWA0FX7/BRCUD99rLcmRluygfT95+K/vBwvJcRysr69H6h4eHkYmk8HNmzexvr4eeVxHHYsM6FJ1/2MTpqamehZDl5aWVKON34VB9KJxXReO4/SsHVWrVczPzx+6AP59NvBgIXmeh+Hh4FNnpZs3b+L69eswDKNnOkdGzU8//RQzMzNqaJfNZp+Zk+77wWK1vMKenJyMBIk4OY3W7QaL+7p+MPJ6HHI0IQPz+Ph4Yr3hYxkfHz/W9BMR9eftrzHkcjk1Reg4jlqEDr//4XlxIsGi2+3il7/8JYCgs/f9g/ubx8fH4ThO5EPp5DBK13XU68HHk3e7XWSzWXZqRPRMksEhPPWUz+cPfVPh992JBAsgOv3RbyrJcRwMDQ2pEcbKygpOnz6NZrOJ4eHgvQoMFET0rPM8T03RPo9BQjqxYAFEA4amaTh37pyaAhkeDha8m80mzpw5g/X14CO3dT14F+LzfNKJiL5vTjRYSK7rotkMPgLjMLp+8LEfRET0bHkiwUKSi6zhWz01Lfh01qQFWiIienqeaLAgIqLvp5fiCURERHEMFkRElIjBgoiea/0+EmQQHCf4IiQguPNTfgHV84rBgoiea0l3Yj4qz/PUp05rmvbcf3w/gwURPVd8v/8nOMcdp0xc+N3acfV6vecz1aSjtpOOczz9yvRLOwkMFkT0XPA8D6ZpYnR0FKOjozBNs28nXa/XYRgGRkdHMTQ0hOnp6b7lwsrlMkZHR5FKpSLfFxKm67r6sqJqtYqhoaGe7cLfswH0HnMqlYqU8TwPQ0ND6lN6w9/JIeuWj+OwxzsoDBZE9L3neR5mZ2fVN9C1223Ytt3zhUeO42Bubg5zc3PodDpot9uwLOvIgFEul7GwsIB8Po92u41Go4FOp9PzBU/9LC8vq/KFQgGLi4sqoADA7Oys+q4PWWZ5ebln7WNhYQG2bavvuygWi1hcXFTH1Gq1MDo6itnZ2UMfx2MTRETfc7lcTui6LjqdTiS9UqkIAKLRaAghhEin08K27UgZIYQwTVPkcrl4shBCCF3XD91G13X1/8TEhKhUKkKIg/22Wi2VL4QQmUxGWJYlhBCiVqsJAKLdbkfKlEoloWma6HQ6ot1uCwCqXknXdVEulyNpMv2wx/G4BvrlR0RET4PrBt+4Gf9MOcuyMD8/r/5fX1/vOx3k+37fr072PA+e5/X9DpdMJpP4fTTxL3IyjODL0YCD79AOjzSAgw8mDK9FhBfOXdeF53l9v0E0k8n0fRyDwGBBRN97mqb1BIqHkclkIh1yXL9F5H5pD6tfHbquq48575cvPc7jfRQMFkT0vWcYBpaWllAqlSKdaL1eD5UKymma1jOyKJfLfYOFvv+x467r9tzp5Ox/neqjkqOO+FevOo4Dx3EODRbymKrVas/jWFlZUV8kN2hc4Cai7z3Z4c7Pz6vvtXYcp2eaqFAooFqtolwuq6mefD6PhYWFvsECCLZZXFxU23ieh3w+j83NzXjRhyK/Mzv8BUryC5V2d3ejhUM0TUOhUMDS0hKq1ao6JrmYH/+66EFhsCCi7z1N09BoNOB5wdedjo6OYnFxsefrTU3TRK1Ww9LSkrrttNlsotFoHBos8vk8isWi2mZ6ehpDQ0MD6ZQbjQZOnz6NVCqFoaEhzM3NRe56Okw+n0c+n8fi4qK65db3/SMfx+Pip84S0XNFTt0kzekft1yY53mPvT7SjxzlPEpHf1LHFMdgQUREiTgNRUREiRgsiIgoEYMFERElYrAgIqJEDBZERJSIwYKIiBIxWBARUSIGCyIiSsRgQUREiRgsiIgoEYMFERElYrAgIqJEDBZERJSIwYKIiBIxWBARUSIGCyIiSsRgQUREiRgsiIgoEYMFERElGmiw8DwPnuf1pMkvRu/H930Ui0W4rhvPIopwXfex24nv+5E2OT09jVQqFSsV7KtYLPa056NUq1WUy+V4Mr3A4u1N6tdXHpes84kTA5TL5QQA0W63hRBCtNttAUDYth0tGCLLVCqVeBaREEKIRqMhNE0TAAQAoeu6amMPq9FoRNpbpVIRxWIxWmg/HYBoNBrxrEOl02mh63o8mV5gsh2ZpqnSZJ/3qN1voVCI9LNPykBHFpZlAQDq9ToAwHEcAEA2m4Xv+7BtG7quY2FhAbZto1gs7m95oFgsQtd1TE9Po1qtAgiu2EzTRLlcxvz8fHQDeq55nof5+XlomoZarYZKpQLf91U7qFarqr0sLCzANE14nod8Pg/LspDP51UeAHXlv7S0hHq9Dtd10Wq1AATt1jRNTE9PR0Ywnuep9Hw+D9M0VduU7XV+fr7n6pFIchxHtY94vyfbl67rqv0CgGmamJ+fV22vXC7D930sLy8DAGzbViMUub1lWSc36ohHj8dlGIaKouErrWw2q0YZ4b/DIwsZhW3bFpZlqSs7GUk1TROWZYV3R8+5Wq3Wc4Xf6XREu91WbUfXdVEoFNToo91ui3Q63bctydGvZVmi1WqpNtrpdISmaaouXdfVNrKuXC6n0guFQuSqUbZp2d6JhDgYWch2JYQQuq6rtir/D7c72YZknxduj+12W5imqdpjp9OJbC/b8EkYeLCQHXur1VIvViF6h+iapvUEi3Q6LTRNE0IEHYLcPlwnvVjki61Wq8WzegJJeBo03N7CbSw+DSXLyfRSqSSEEKJUKqm6gSC4hOsqFAoqQEiGYZzYC5W+n2T7zeVyQtM0USqVhKZpIpPJRPrJeLuT6bLdyXrCF8/tdrun3YbzBm2g01BAMDQCoKYJcrkcAEDTNLUw4/VZ8JFlgOii+OnTp1W+YRjqb3oxyKnN5eVleJ4H13VhGAZM01TtZWVlBUCw8PeoZF2bm5sAggVuaWJiQrXJcHq4vR7WpomAoF/0fR+Li4uwLEu1Hfl7fX0dwEG703U9kn8YWU62WzkFlbTdI4lHj0GQw6TwVZa8CpQ//UYWrVar70KmjJb0YioWiz1tp9VqqSF4OB37V1WHjSzkdJP8P1xOtttwXY1GQ13taZqm0guFQqS9yt8cWVCYHBG0Q9NHjUYjMiqVf8uffD4vhBACOJiZCY8s5GgiXpf86XfDxiAMCSEEBkze4mgYRmQ04LouHMeBYRjwfR+apsEwDLWwqOs6PM9DvV6HpmkqAsv65KiFXjye56kbJsJXZuF0wzDgui4sy4LruvB9H5Zlwff9njbmOA7M/cVEWQ4IFsx934dpmnBdV21Tr9fh7S8khtu2bK+ynYfrIpJtTbZDx3Fg2zYcx4HneapPkzdbmKYJ0zQBHNy8IdupbLO6rqvt4+1TjrpPwokECyIier4MfM2CiIiePwwWRESUiMGCiIgSMVgQEVEiBgsiIkrEYEFERIleiSc8DvlBV0RE9PQYhjHw9/vwfRZERJSI01BERJSIwYKIiBIxWBARUSIGCyIiSsRgQUREiRgsiIgoEYMFERElYrAgIqJEDBZERJToxIKF4zj86A8ieua5rgvP8+LJFHMiwcJxHCwtLWFlZSXyJFSrVdi2jWq1qtI8z0M+n1ffPVuv11UeEDyRlmXBNE3Mz8/zSaWHJttduVxWab7vo1gsqnYXbpP04nAcB+VyGdVqtW9fFW4zYUn9UrVajeTHL5zDbe+wfQDBd3MfVU+5XFb5R9UzEGLAcrmcMAxDmKYpLMsSuq6LdrsthBCi0WgIy7KEbduqfDqdFvl8XtRqNVGpVISmaaLRaAghhGi320LXdZHP50Wj0RDFYlHoui46nY7anihJo9EQ2WxWmKap0uT//dodvRgKhYLQdV1YliVM0xSapolWqyWE6N9mpHa7LTRNE8ViUTQaDZHP54Wu6yq/0WgIXddFpVJRfV64HrnfWq2mypZKJZUvtVotoWnaofVUKpWeegqFwkEFAzbQYNHpdAQA0W63RaFQEO12W9i2LWq1mipTKBRUsJAnIyyXy4lcLieECE5G/MkyTVNUKpVIGlGScFsKt1OpVCoJy7LU//T8k8FBdsbFYjHSaffrf2R6vK0YhiEa+xcbmUwmUo9sb/IiV9d1VVaIg+ASl81mj6wnvE8hDq9nUE5kGio8VKpUKod+VK7neTAMI5JmGAbW19cBBEO9dDodyZ+amoLrupE0oofhui50XYeu6yrNMAy2qxdQuK8qFArI5/Oh3P4cx8HU1FQkLdwvbW5uRvo1TdMwMTEB13Xh+z48z4NpmirfMAx4ntczxbS+vt63HsdxAATtOJx/WD2DMtBgoWkaisUipqensby8jHq9fuSB98vTdV3N//XL1zQNu7u78WSixxIOHPRiKBQKmJ2dxdLSEhzH6Vl3OIzneX3bi+yvOp1OLOegXzusTwN6+7vD6pEBBzjYNvx3vJ5BGWiwAIInoN1uI51Oo9lsYnp6+qGu2Hzf7/tEhJ0+fTqeRPRYjttR0PMjn8+j0+nANE00m02kUqmeG2z6kR32w9jd3U3s18Id/1GOW27QBh4sgOBk6rqOUqmEdDqNpaWleBEA/U+653nqZBiGgc3NzUi+nEIgelT92t1xLlLo+aNpGqamplAoFFAoFLC8vBwv0kPTtJ6Li/BoI5VK9c3XNA26rvds77ouNE3rCQL96llfXz+yHuDkRskDDRa+72NoaEjNqUmHjQTkHFu4/NLSEjKZjMqv1+vqhHieh/X19UPXQIiOQ76Ywu2uXq/3zEPT8210dLRnJBG/iAiTeZZlYWVlRf3veR6azaZah0in05GgU61WoWmaWl8wDCNyAS1vjwWCfch2Ga+nXq9D0zS1n371hNdCBi6+4v245O2thmGIdDoduXVWiOjdUEIEd6EAEOl0Wmia1nP3gbwtTeYXi8VIPtFxxO9sqdVqqt0ZhtHTTun5VyqVhKZpwjCMntv8hYi2GVlWOqpf6nQ6Qtd11Q9qmha5I7TVaqlt422vVCqp/jFeD4BIPe39txbIejRNO9E2fCLfwe15HhYWFpBOp2HbdmR4JUcJ8upOpnn7w7Tw6r4k7yI4LJ8oiecFi4vh9pPU7uj553kelpaWoGkacrlcT18l24xsK+Erd9kv6fvT7nFyhGAYRs8Uk+/7atoonG+apnrDnvQo9ZyEEwkWwMHawkkePBHR4/L6XMA+LdPT02i1WvHkZ8KJBQsiIno4cgblWcRgQUREiQZ6NxQRET2fGCyIiCgRgwURESVisCAiokQMFkRElIjBgoiIEjFYEBFRIgYLIiJKxGBBRESJGCyIiCgRgwURESVisCAiokQMFkRElIjBgoiIEjFYEBFRIgYLIiJK9HKxWCzGEwehWCz2fK2q53nqe2vHx8dVuuu6+PTTT9X32cY5jgPHcfrm+76P1dVVuK6L4eHhZ/ZbpujZcVg7pBdTtVrt6VuO00aS+qVPP/0UN2/e7Nsv+b6Pjz76CJ7n9c2Xkvq349YzEGLAWq2WSKfTAoDQNE0UCgWVVygUhK7rwrbtSJqmacK2baHrutB1XXQ6HZWfy+WEpmnCsiyh67rI5/Mqr9PpCF3XhWEYKr9UKql8on76tUN68bTb7UhfZdu26nsKhYIwDEOYphnbKpBOpyP9Urifa7fbQtd1YZqmsCxLAIj0S+12W2iaJkzTFKZpCl3XRavVUvnhcg9Tj6ZpfesZlIEHC13XRblcFoVCQTQaDaFpmqhUKiq/UCioF2mn0xEARLvdVvmmaaoT0mg0IsGj0+kITdNEo9EQQghRqVQiL3i5v3CwIeon3A7pxWkIyOYAACAASURBVGQYhigWi6JSqYhqtSoMw4h0+pVKpW+wqNVqkX5JdtqyH8vlcn37JSmdTotyuaz+LxQKffcTb6P96ikWi+r/w+oZlIGuWXieB8/zkM1mAQC6rqPRaMA0zWjBfa7rwjAM6KEhXCaTQbPZBBAM80zTVEMrTdOQyWTgui6AYPiYTqfVtqZp4vTp0yqfiOgwruuqvmpiYgK1Wg22bUcL9eE4DjKZjOqXdF1HOp1GvV4HENSbyWRUedn/yX6p2WxG8m3b7ttnyf1I8f7tuPUMykCDha7r0HUd8/Pz2NzcBICeYBDmeV7PHJuu6/A8T+VPTEz05K+vrwMAdnd3e+oOb09EdBjTNDE3N6c6WNl/JfE8r6ecpmnwfV/lH9avyb4pvL2u6/B9v6ff6lfP6OgoXNdVZQ3DUHmH1TMoAw0WANBoNGAYBhzHwezsLBYWFtRJPI74yTlKp9OJJxERHUutVkMul0Oz2cTc3Bzm5+eP3Vc9TD8FAKdPn44nPZJB1fMoXoknPC5d11EoFCCEgGmaWFhYwOnTp3HYTVfxJyccTcPRWvJ9X402RkdH+0bRh30iiejFo2mamnYaGhpCtVrFwsICKpVKtGCMpmk9/U6/fipM9muyb/J9P/I3EB1tAEH/Fq9HzqYcVc9J9X8DHVn4vo9isRh58JlMRk1JxZmmCc/zIifEcRxMTU0BCIZYcspJkuscAJBOpyNPmud5aDabkaEZEVE/xWJRTUFNTEwgm832BIF+DMNQ66rS+vq6WpswTTOyduB5HjY3N2EYBjRNw8TERCQ/3KeFpdPpnnpk2aPqOalgMdCRhaZpWF5exu7uLnzfR7PZxPLyMgqFQrwogCCYGIaB+fl55HI5OI6D5eVltNttAIBlWVhcXEQ+n4dpmnAcB5ubm7AsC0CwoDM7OwtN06DrOpaXl2Hbdk+EJiKKazabaDabSKfT8H0fy8vLasE7rl6vo9lsolQqwbbtnn4JOFjItm0bc3NzagSwuLgI27ZVJ57P5zE/P49SqQTf97G4uKj6yHq9jnK5DMdxYFnWseqR24brORHx26MeV7vdFtlsVt0fHL5FTIjgdrTwvcKdTkfkcjlhmqawbVvdFivJ+kzTFLlcLnKbrRDB7WSWZQnLskSxWORts3Qs8XZIL55OpyOy2awwDEMYhtHTV9VqNZHL5YQQQXuxLEvlJfVLtVrtyH5J3pZrWZaohN5akM1mI/8/aj0nYUgIIeIBZBDK5TIsy+JVPhE90+r1OjRNUyODpymVSqHRaDyT/eaJBQsiIno41WpVLbo/axgsiIgo0UDvhiIioucTgwURESVisCAiokQMFkRElIjBgoiIEg30Hdzlcrnns0yIiOjJMgxDfdLFoPDWWSIiSsRpKCIiSsRgQUREiRgsiIgoEYMFERElYrAgIqJEDBZERJSIwYKIiBIxWBARUSIGCyIiSsRgQUTPPdd1Ua/X48kKP6Yo2UCDhe/7KBaLKBaL8azngu/7qFarqFar8SwiekaVy2UUi0UsLi6iWq3C8zyV53keTNPE6OgohoaGYJpmJD9Mlh0aGupbNp4/PT19ZH4qlYLruio/rl6vQ9d1VX5+fj4S1FzXhWEYKt+yrEOPfSDEALXbbQFADLjaZ8bz/viInjeGYajXrPzRdV10Oh0hhBC6rgsAwjAM9bdpmrFaAjJf0zRVV7hsv3xd11V+JpNR6bKMpmnqWMLCfU24Ptu2VX6//R127IMw0F4v3plWKhWRTqdFoVAQhUJBGIYh0um0aLVakW2y2ayYmJgQtm2rbfL5vBBCiFKpJNLptKhUKqJQKIhcLieEEKLVaolMJiMmJiZUvtTpdEQulxMTExPCMAxRKBQieYVCIbJdOp0W6XRalZH7NAxD2LYt2u22ECLa8NLptKjVakIIIRqNxqHHQkRPR6PRUK/XSqUistmsCgq1Wk20Wi3V2QohRK1WE0C0g5dkXTLQtNtt1Um3Wi1Vl67rot1ui06no/IbjUakb5T9iWma6tjiSqWSACAsyxJCBP2dPNZOpyMqlcqhx9Mv+AzCiQaLQqGgHqBMDz9gIQ6icfxHRshsNhupQ3be8v/w9qVSSQhxEMHDVwsyYMj6+v0IEQQ4uT/5ZMrGEy9fqVQiDbLfsRDR0yE7WAAim81GLhr7ka99wzDiWaovk523EAf9TKVSUduGr+xlX1MqlVQ/Ec7P5XICgLoADpN1h/uRiYkJAQTBSW4bfkzyYlZexA7aQNcsDqNpGtrtNtrtNjRNg+/7qNfrqNfr8DwPuq6j1Wqh3W7DNM345kqpVEI2m0WxWITv+8jn82i322i1WgCAxcVF+L6v5gFzuRxarRYKhQI0TYPneVheXgYQzGMKIZDP51X9QDCvCAC2baNWq6l9+r6PdrutygkhYNu2Wp8pl8tot9toNBoAgmMhoqfHMAz1+l5eXsbi4iJM0+y70O15nnrN5nK5WO4BTdN6/g6vE+i63vO37/t91xLk9ru7u7GcgwX38P4k3/f7LsifPn0awMkt1j+RYGEYBnRdh67ryGQyAIITLDt1wzBUmWw2G95UyeVyyOfzMEOLSuVyWS0kAQcnUTaQ+fl5pFIpbG5uRhZ/NE1TDSLeMCzLgq7rKJfLGB0dRb1eh2EYfZ804KCh5PN5DA0NYXZ2FsDJPWFEdHylUgmNRkN9EVCz2cTc3Bwcx1FlPM/D3NwcPM+DbduwbVvlSf1e//I1Hg4Q4dd9+G+5fb9+QXbyYeFA00+/45HCxzNIA/2mvMMc9sD6ncB+EThObpfL5WBZViTS6roOy7JgGAY8z8PKyoq6A6JUKgE4iPS6rvc8GZqmodFowHEcOI6D5eVlNJtNdDqdSDlpdHQUm5ubKBaLSKfTh0Z9InqyPM9TQSGXy2FqagorKytwXReO46gLz9nZWRUoKpVKtJJ9hmEACO5QqlQq8H0f6+vrAII+R/ZJjuOo1//KyoraVm7veZ7qe+QIR+aFGYaB5eVlrKysIJ/Pw/M8bG5uqjx5od1sNgEE9cq/TypYPJE1C7mCL8TBPF6hUIiUT6fTkfWE+JpFeG4uvLhT2F84l9uEF5ZKpZKa25PzkPr+uoKu6yKbzUbWU8L7syxL1Go1Vb7VaolOp6PKZjIZ0Wg01GOUxyLLhx8zET154b4gnU4L0zTV67NSqUTyNU0T2WxW/Qhx0Fc0Gg3R6XTU/5qmRdZMpaR8uQYaz2/vL3hns1mRTqfVgrXsa8LlZb8SP3b5d3hNZNCearAQQohisai2AYJOPfyg4+Wl+HamaaqTHu7k5cmUiz6tViuSZ1lW5Jjb7YNb0uRPsViUuxX5fF6lV/bvYginxY+FiJ6eSqXS83qWd1qG+6v4T7gzPqzvMAwj8jqP9x26rvfc+Sn7NyDolxqNhhAi6PyBaGcfP/Z4vxLv5+L5gzbw7+D29qeR9P0pHt/3oWlaZMpJpsn/5TaGYaBer2N+fh6maaLRaPStQ5JDOk3T+g7lHMeBpmnQQ8PEeJ6crgKiwzfXdeH7PnQ9WGsJ63dM8lj6lSeip6tcLsN1XZTL5Z6+4DCe58H3/Z6+pV9/ESb7h4fJdxwHs7OzqFQqPWsmso877LiT8gdl4MHiYfi+j9HRUQDBQpSu61hYWICXMH9IRPQw+nXQz5J6vY7l5WXUarV41jPjqQYLILjFNP7xILquo9FoPLNPLBHRi+apBwsgGII5joPNzU1MTU3Btu0TH1IREdHxPRPBgoiInm1P5E15RET0/cZgQUREiRgsiIgo0UA/7kO+N4GIiJ6ew9579jgGOrJgoCAievpO4m5S3g1FRESJBjqyICKi5xODBRERJWKwICKiRAwWRESUiMGCiIgSMVgQEVEiBgsiIkrEYEFERIkYLIjohcRPnHg4fAc3Eb2QLMtCtVrt+WgM3/dRrVbV929blhXJl45bDgg+N0/TtJ7v3Zafp2fbds83g3qeB8dxImlA8E2ipmmiXq/3BDyZdxIGPrLwfR9DQ0Oo1+vxLACAYRiYm5uLJz+Ser1+5BNERBRXLpeRSqXQbDaRSqWwsLCg8jzPw/T0NNbX1wEACwsLkXwpXq5eryOVSvV03kCwv+npaVSrVZVWr9cxNzcHz/PgeR5SqVTfwNBsNiM/S0tLqm8tl8tYWVmJ5HueF61gkMSANRoNAUDkcrl4lqhUKgKAKBQKkfRWqyUajYZot9uR9Ha7LTqdjuh0Oj35nU5H5HI5YZqmKhfertFoiEajodKOIvcv9xWuKyycJ7fpR+5fHm/8cXU6ncj2/fYZPyfhOuTfrVarZzsiOlyn0xEARLvdFtlsVrTbbaFpmqjVakKIoI8yTbOnfPx1VigUhGVZkTTDMESlUomktdttYRiGsG070u+l0+lI2VKpFNnvYXRdV/1GOp0+tA86CQMPFqVSSei6LnRdj6S3221hmqbQNE09wFarJXRdF6ZpCsuyBABRKpXUNoZhCNM0++aXSiWhaZraXnaclmUJTdOEZVkqL/5ES3L/cj+6rotcLtfTCKR0Oi1s246U13U90pHncjmhaZrKLxQKqnEKETRGmS/LmKapGlK73RbpdFoYhqEeQy6XE4ZhCCGCYKxpmshms0LX9UMfGxH1arfbqvPPZrNCiN6LwFarFdpC9A0WpVJJZDKZSFq4Iw+nVSoVUSgUIsEiXqc8rqM0Gg3VDwhxECxqtZooFAo9+x60o4/uEWQyGVEoFISmaZFONJvNinK5LACIVqsl2u220HVdVKtVVabRCEYl8skDIIrFosqXgUgyDCNygrLZrLBtW/3f6XSEYRiRACQdtf/wkxqmaZowDCPyJJumqfYpA008X9M0IUTQEDVNizTGUqkkAKgrG13XI4+5vX/lIwOYPAcn3TCInlfhi9B4EIirVCqRPkfqdDoik8kI27ZFqVQS6XRa5PP5SJlCoaD6hnCwOCwwhC8q+8lkMpHRSDqdFpqmiVwuJwqFgro4PSm9R/yYDMMQtVpNZLNZ1Uk3Gg2h67rqLIUIOtZwxy5NTEyIRiOYQpJlpUYosspgIp9s+QTET/Zh+zksfWJiQnXcYXJ/8frlsPWw/RcKBWGaphAieHLjgUtu12q1RK1W69sw0+m0agSHHTcRHZ8MApqmCdu2+waN9v4FZb8LM5knO+r4SF++luX/jxss5P7Ccrlc5GK3vX9h2e+xDMLAF7hd14Wu6zAMA81mEwAwPz+PRqMBz/PUtze5roupqanwpvB9H5ubm9A0LVJWknXLvzVNU3cyuK4L0zRVvuR5HiYmJiJpQP/9A8Dm5mZPHcDBvuN5Mv2wfM/z1H7W19d7HpPv++pbrRzHgdnnTobd3d3IectkMrESRPQwbNtGOp1Gq9WC67ool8uRfM/zMDs7C9u2+74mi8UistksyuUyisUiqtUqpqamUC6X4fs+FhYWkM1mUa/XUa1Wsb6+jvX1dTiOo/qI8GK4/Dvef0jFYrHnOMrlMrLZrPpf13WcPn267yL7IAw0WMgO3Ni/jcxxHBSLRdj7t4U5jqM6Tk3Teh5UuVyGYRgwDKNvZx7ueF3XjXS8vu/33AngeR5WVlZg23YkHQj2Hy9fLBYP/TpCeYtb+Jhl/fIJ65ffbDYjDSC+T/mYpXh+tVqNBMn19fVDGxQRHU3ephrunNPpdOR167ouZmdnkc/nUSgUVHqY7/s9r8Nwn2aaJjY3N9VdSq7rwvMOboU1TROu66pt6/V6334HCPqE5eXlnmORF5iS53nqYvtExIcaj6NWq6kpFyGCKR09NBQLT8PIaaZKpSJqtZrI5XJC1w8Wi9OxuwVkmpwiKpVK6u4Ducah67qwbVs0Gg01tx+e/w+r7C80l0oltX9jfy6zH3l8lmWJRqOhhrGyfrl/mV8qBXc3AFDDWDmvKB9zen8hW9451thfM8nlcqLRaKgpLPk0HTZ8JaLjk69T0zRVPyD7Hfl/NpsVlUpF/bTbbVGr1dSidnjtsN0O7n7UYuuRYdlsVk1DCXEwDSanp2RfKMTBFFa4bL+pZ3kMpVJJVCoVYRhGz7rJIL1cLBaLkejxGG7evInJyUkVITVNg2VZ6v/NzU28//77GB8fh67rGB8fx8rKCtbX15FKpVCpVDA+Pg4giO6yrOS6LizLgqZpmJychOd5uHXrFmZmZjA+Pg7LsuC6Lj7++GMMDw/jpz/9ad9RBRBE5fHxcVy/fh2bm5v48Y9/jJmZGbz11luYmZmJF8cvfvELFItF6LqOpaUl7O7uolAoqPqHh4dhWRZWV1fRbDYxOjqKUqmE7e1t2LaN4eFhmKYJTdOwvLyM7e1t5PN53Lx5E4ZhYGZmBroevKHm+vXrWFtbw+TkJP7mb/4Gr732Gt5//334fvAelvfffz96cER0bJZlodvt4vr16xgaGsLf/d3fqT7K8zzouq5GCfJH3x9FvPbaa5iZmcHMzAw0TcPS0hKWlpawubmJUqnUt+8ADkYik5OTAIL+R9d13Lx5E91uF8ViUb1n7Be/+AVs21bHJGcvwn0hANVnuK6LW7du4dKlS/jpT38aKTNIfAf3MY2OjqLRaBw6VEzieZ4KdpLv+5ienkaj0VCNkYiejGq1eujF5NMk+4QTm056RAwWx+C6Lqanp/E4p8r3fTXayOfz8DwPCwsL0HUdpVIpXpyIXkC+78NxnGfykykGusD9vPJ9v+dOhIelaRpqtRqWl5cxNDSE2dlZmKbJQEFEipy6fxZxZEFERIk4siAiokQMFkRElIjBgoiIEjFYEBFRIgYLIiJKxGBBRESJGCyIiCjRK/GExyE/npeIiJ4eY/+TvweJb8ojIqJEnIYiIqJEDBZERJSIwYKIiBIxWBARUSIGCyIiSsRgQUREiRgsiIgoEYMFERElYrAgIqJEz22wuL+9jS8++AA7V6/Gs4iIjnRndRV3P/88nqw82NvDg729ePJDub+zE096pg30s6G+29vD7/t0zq+/+y7ePH8+ntzj9pUr+HZnB3/x4Yd47d130fnkEzzY28Ob58/j1NhYvPiR7m5s4M7aGgDgTy9fxksjI7ESRERRD/b28IeVFeytreGlkRF8u7MT6bvub29ja2kJ9zY2AACnxsbwoytX8MbMjCojyXoA4K18Hq/s92F/WFnBHz76SAUb7eJFjF25oraTOp98gs4nn8STMXrxIkYvXsTtPtuMnD2LM7lcPHkgBhosHuzt4asbN+LJGAKOFSziOp98gm93dvD62bMPHSxO7+9vCGCgIKJE97e38duf/xzfhq74721sYPfGDfzFhx8CAL748EN8027j1VQKp86cwZ3VVXzx4Yf4d9euRfqZ+9vb+Nf/+l/V/9Ldzz9X6afGxnB/Zwf+J5/g5ZER/PDy5VjpoP+SvtsfzcggI48z3Dd+95ijnaMMNFiEvR0aYciTePfzz/HltWu4vx8AXk2lcGd1FafPn+8JJr+/elWdjJ2rVzFy7hz+9PJldG/fxu+vXlV1vPKjH+HexgZeO3sWfxo62d+FAteb58/jqxs3sHvjBl59+2289Prr+Oqzz3BqbAxjV67g1bffBnBw1SDrfu3dd/HVjRsYfvtt/OjKFfz+6lV0b9/Gm+fP44/tNl4ZG8PoxYuRx3VqbCzyeO5vb+PLjz7C3c8/x8sjI8Hj+I//EUAQXL+8dg1fr67i1NgYfnj5Mr68dg0A8BcffqiO+bWzZ/HS66/jvued2FUD0Yvuztoavt1/Db8xM4Pv9vZw7/PP8e3ODr7d2cEr+507AIzn83g1lcJmLodv2m18027jtXffBRC8rn/7858DCPq+8HRVuE8az+Vw9/PP8c8//zm+unGjJ1jIEYR0+8oVPNjbi4xiTo2NIdVnNucknFiwkEMu6f72Nv55/wQCwUmTJ/L1s2dDJQPd27fV39/cvo3hVErVIU9+eBTzJ2fOqL+B4AmTQ0UgmB+8t7GBexsbar/f7uzgtz//Od6+ehXf3bkTuar46sYNVf/QUBDfu7dv497GBr5pt/Fgbw8/vHxZPdlA8MTJfXy3t4fRixcPrkTefhvf3bmDP3z0EV5+4w2MXryI333wgTrGb3d2IucHODhmub9+54mIBuu7vT10b9/G6f0OPWzk3Dl8/dln+Pp//A90b9/GN+02To2N4dVUSpX511//Gt/u7OCHly9j98aNSLD4pt0GcDDzoS5Ud3bwYG/v0FmQu/tB69W3347s67u9Pfz2Zz/DvY0NvJpKYTyXU3UO2oktcP/PixfxPy9exPbSEgCg85vfAAg61H937RpSv/rVoScGCK6sZcD5iw8/xJlcDl999hke7O2paJr61a8iJ+44To2N4e39bWXQuLuxgbsbG+qqIqnul0dG8KMrVzBy7pwaCfzoyhWkrl7Fn3/wAQCodHkl8qO//mv82c9+hh9evoxTY2P4Zj/wAMHj+18++QRa6CoiTAam8FUGEQ3Wm+fP45WxMXWhuXP1Kr744IPIQvToxYt4aWQEf/joI9W3jczMqL5s98YN+L/5jZopiItPE70c6gPDQSXO31+7GP2rv4qkP9jbwzftNl4/exbftNv4behietBObGQhI6ccmn2zP1LQ9k/2SyMjeGNmRp2E45BPWnjB+42ZGRWtj+P1s2fV/l9NpXBvYwMP7txRHXd4fUQLBbswLTQ8lMf0+6tXI4v78gkbvXgRX167hn/++c/VY37z/Hl1Pk6NjalzNHrxYt/z8cbMTN+GR0SD8/LICN6+ehX3Njbwr7/+Ne5tBDfJ3N3YwNtXr0IgWLN4sLeHM7kc/uTMGfxLuQz/k0/wxrlzODU2pi4S/83+rIPsB7q3b+P1UGCIBw2gdzZGur+9jTtrazg1NhaZrpd9guwP5ZTY/Z2dQy90H8eJBYv43PqpM2fUlIr07fZ2qESy8NqHPFH3H7KOw8i6/xiq794ht86FrwZeHhnBtwieuNfPnsV3d+5EGsKb58/jtXffxf2dHXy9P7X1YG8P2v4Vgly0emlk5NBb9cL7I6KTcX97G3c3NvDyyAheP3sWb8zM4Mtr1/Bgbw93Vlfx2tmzavZBXgy/fvYsvrpxI7jYfPddNY0dv8j84sMP8fbVq6r83c8/xxvnzmF3f6r7qKkjGYBeC01Dh/uYeP/wvRtZxMnF4q9u3MCD/Q5VXs0n2bl6FaN/9Vd449w5+J98gnsbG/jigw8eqo4k4bp/+7Of4aWREXXb21HkyEaub+zeuKFut3tjZgabuRwe7O3h31y+jD9JpXB3YwMP9vaChfaRYBpsM5fDa2fP4s7qaqx2InpS7u/sqE7+1NiYmpICgo5azkjc39nB1tKSukEHCDr7flNPsqOX01dvvvcevrpxA/4nn+DO6qoKLm++9x6A4P0dO1ev4s3z5/Gnly/j/vY2vvrsMwAHIwkgCBCyr/nqxg28MjbWd/1kkE5szSLu9Pnzak7+ztoavmm3e+6Aivvh5eD9EXJ+//WzZ9UJk3UM6sSE6763ESxSv3HuXKxUrx9evgzt4kXc39nBl9eu4dud4E6qsStX1NrGK2Nj+MO1a/B/8xu8NDKCP/3rv8bLIyP48w8+UHdYfHXjxrH2R0QnI9wHyJtLXtp/DZ8aG8PLIyMYz+XwytgYvrpxA7+/elWtJ75x7hxOnTmDH16+HPmRZLCQ+3hlbEwFivBdT3Lt9Af7dzzd3b8YfmNmRk2PS38R6j/ksZ7J5dQsyaAN/Du45Qk4av7twd276oHLKZiXRoI3wADBlFD4AX+7sxNJu7+9jW9//3sVKMJ1hIWP5UFoukeWC6cBwdDuuzt3IO7exaupFHb3G8TrZ8/izz/4oG8d0oO9YKFJXpHEySfz1NhYz7b3NjbUdknHTEQnb6tcxqkzZ1QnHyZf6wDwairVkx92VH8Y79cA4Lc/+xke3L2LiXIZQLSPOmw/sky/fQzSwIPF99U3t29jM5/HSyMjGLtyBS+NjGDnavBej/FcLnEURETPj/vb23j5jTcO7aBPyhcffKCmsJ81DBYhX167puYYpVNjY5hYWnrijYaI6FnCYBFzb2ND3ZV0aix4JycDBRG96BgsiIgo0RO7G4qIiL6/GCyIiCgRgwURESVisCAiokQMFkRElIjBgoiIEjFYEBFRIgYLIiJKxGBBRESJGCyIiCgRgwURESVisCAiokQMFkRElIjBgoiIEjFYEBFRIgYLIiJKxGBBRESJGCyIiCgRgwURESVisCAiokQMFkRElIjBgoiIEjFYEBFRIgYLIiJKxGBBRESJGCyIiCgRgwURESVisCAiokQMFkRElIjBgoiIEjFYEBFRIgYLIiJKxGBBRESJGCyIiCgRgwURESVisCAiokQMFkRElIjBgoiIEjFYEBFRIgYLIiJKxGBBRESJGCyIiCgRgwURESVisCAiokQMFkRElIjBgoiIEjFYEBFRIgYLIiJKxGBBRESJGCyIiCgRgwURESVisCAiokQMFkRElIjBgoiIEjFYEBFRIgYLIiJKxGBBRESJGCyIiCgRgwURESVisCAiokQMFkRElIjBgoiIEjFYEBFRIgYLIiJKxGBBRESJGCyIiCgRgwURESVisCAiokQMFkRElIjBgoiIEjFYEBFRIgYLIiJKxGBBRESJGCyIiCgRgwURESVisCAiokQMFkRElIjBgoiIEjFYEBFRIgYLIiJKxGBBRESJGCyIiCgRgwURESVisCAiokQMFkRElIjBgoiIEjFYEBFRIgYLIiJKxGBBRESJGCyIiCgRgwURESVisCAiokQMFkRElIjBgoiIEjFYEBFRIgYLIiJKxGBBRESJGCyIiCgRgwURESVisCAiokQMFkRElIjBgoiIEjFYEBFRIgYLIiJKxGBBRESJGCyIiCgRgwURESVisCAiokQMFkRElIjBgoiIEjFYEBFRIgYLIiJKxGBBRESJGCyIiCgRgwURESVisCAiokQMFkRElIjBgoiIEjFYEBFRIgYLIiJKxGBBGIgcDwAAHo5JREFURESJGCyIiCgRgwURESVisCAiokQMFkRElIjBgoiIEjFYEBFRIgYLIiJKxGBBRESJGCyIiCgRgwURESVisCAiokQMFkRElIjBgoiIEjFYEBFRIgYLIiJKxGBBRESJGCyIiCgRgwURESVisCAiokQMFkRElIjBgoiIEjFYEBFRIgYLIiJKxGBBRESJGCyIiCgRgwURESVisCAiokQMFkRElIjBgoiIEjFYEBFRIgYLIiJKxGBBRESJGCyIiCgRgwURESVisCAiokQMFkRElIjBgoiIEjFYEBFRIgYLIiJKxGBBRESJGCyIiCgRgwURESVisCAiokQMFkRElIjBgoiIEjFYEBFRIgYLIiJKxGBBRESJGCyIiCgRgwURESVisCAiokSvxBOetgd7e+jevo1v2m18024DAO5vb8dK0Yvm5ZERnDpzBq+MjeHVVAqvnz0bL/Ls+84H9hzgjx7wjRv8/50fL0Uvmj/RgVM6MGwEfw8bsQLPhiEhhIgnPmkP9vawe+MG7qyu4t7GRjybqMdLIyN4/d138cbMDN48fz6e/ey47wGdKvDVCtB147lEvU7pwIgJjGaD38+Ipxos7m9v48tr13BnbQ0P9vbi2UTHcmpsDD947z2c/vf/HqfGxuLZT8eeA+wUgb1mPIfo+E7pwFgBGLXjOU/cUwkWD/b28K+//jX83/wmnkX0yE6NjUG7eBGjFy/Gs56cP3rA72wGCRqsZyBoPPFgcffzz7G1tIRvd3biWUQDcWpsDH/+4YdPfpTxZRnYXgQecB2CTohmB0HjT/R4zol7osHiX3/9a/zho4/iyUQD99LICMZzObwxMxPPGrzvfOBf8oC/HM8hGrxTOpBqPPGA8cSCxc6vfsVpJ3rifnTlyslOS33nA+1ZLl7Tk/WyFgSMJ3jn1BN5nwUDBT0tv796FZ1PPoknDwYDBT0tT6HtnXiw4EI2PW2/v3oVdz//PJ78+P55/om+WIkiZMD4oxfPOREnGizurK5yjYKeCV98+CHuD/Kmip0i8HU9nvpcyv8XQL8Q/Phfx3PpqZIB4wm8ufPEgsX97W3sXL0aTyZ6Kh7s7WGrXI4nP5o/esDOYjz1ueR/DSz9I7D5RfBT7RMf/a8B92bw2/8a8L4IfmSe98VBkAkHm3jZOO+LoF75d7xcv/3K+mV5mfdcB7n73hNpjycWLL68do23x9Iz5d7GxmDWL9qz8ZTnVv1G8Fv/s+D3SuMgDwg669QFYPo/AKP/GzD/t8H/s/NBfvm/Bf9bOcCcB+Zy0fTwj/e7IM/7XVBW1jv9H4Dp/z343/mn6PYyT+534b8E+fbPg/8X/z74Xf5vQfpz68ty8EbQE3QiweL+9ja++uyzeDLRU/fltWuP92kBnWpwJTcg7k2g/llwxe7807N3BVxdCX4X/hOg/SA4Rnm1738ddP7+10Ge9V7wWPpp/hPQ/P+Cv92bwML/Hfyd+z+AbCYYBcz+n0Fa8R+CstoPADvTOzKQ2/tfA+ZfBoHssP2W//HZO6cn5oRHFyfyQYJfXrsWTyJ6JjzY20Pnk0/ww8uX41nHM4AXpP91cKW7dEhHlv5LwL4I2FY858nyfnfQwVvvBZ300j8C9QZgTAaBw/sC0P8t0Pp/g869+PfA4j9E6wGCMrUyoL15cJVvvRf8AMDyysG008p+x1/6z0Gw8L4IRg/yXMkAZr0H1JaCv+2/DeqIs94L6tF+EM95Du05wc8JfZ7UwEcWHFXQs+6Rp6IGMKqQ0yeL/9A/UADBVfj8/xVMrRxW5kmQUz7G5MF0FAAs7Xf2/lfBb+0HB52x+ZfB7zjzfw3q0f/s4DHVPwse4/zfBukyT+bLuvQ/A06HOnuZP7E/NQYcTJPFZd4L8l6IYAEM5GLmMAMPFp1n8DZZ+ZlBRzlOmX5eGhl58h8rcUJ+dOUKxnM5jOf2J5afUw/29h7tVlq/Gk95KMW/P5g+OY7qSvSK+kmTIwT3ZhC8lv4x+N//Oggk+r8N/vd+d7DeIAPMUWTHbr0HtK8Djf8nmIrKZoIAITt2GZScfwoW1yXjneD3ymfBfv2v+48qXkh7zondGTXwaag7q6vxpKcq/DlBL4+M9J0iO06ZuNGLF/Hm+fN4NZVSafc2NrD73//793Zk9YOZGbyyH/i2lvbH98+pvbW1h/tOjO/8/7+9+4lt47rzAP4lqaFEjkRTZkM5sbwrKrDV7UqJN41h7SGpI/XQvUjeW5TtIsrCPcQXq5ctEBeIi20CdC+xTj3YaFxsNw6wC8RWsEgvcpy4aOSN7diVklrOQlRhWjWZyqL+DClx+GcPj28480iKpDjDP9bvAxixH4czQ0aa77y/U9XigBcuFW6eKWVxifULfPwr8RVr3b7Lju3tAN79ee4CfuEyuzBfugKc/QmrLdy+CwR+wLYpJ9jGj7PguXAZuD2fu+CPj7LX3zzJOqrPZrcR9zl+nH2Xi0uVHXfXiF4AfBNiadVMrVmo4XBDjYCyy7JhQTnf2FheW7W46JxvbKxkDePA22/jiRMnDEEBAK7+fuybmMg7Bmk8q9O6dpVyKFfFkorsJCi4q58XHrJqpUtXWA1gfJTVAI4dYX/GR1n5JzfYBfqDSVYj6HmKBcc7/2rcj7cjvxmp5yngi/9m+42uZfs6TrK+BQCY+CFw5nW2P28HCyV9k5O3g4Xnsedzx534ofE4Pft3WfOTXhU3NdsxdW2ojZkZLL39tlhcV3tffhnfeuUVQ9nyxYtYvngxLygAFnj3T58uGnr6tYb4Q5vSigJXf7/hTvX+G28YHuTkGR6Gu78fUleXVvvgzT2bwSCiU1OwyzL8J04AYKvzbgWD8AwPwyHLSGU7ZsXzsssyOkdG0NrbC4csY3NhYcfb9Z4/r9Us7ukCszUQgGd4GG29vdr73AMDcPf3AwAi588jrSjwjY1p3+XDyUntMzdqLUX/eUv68wSwvLPPceESa8bhXh0t3WwyPsou2PyO+XAfu8A2kuh6rrN64p/Zhfnq52xU0+Fvs07vnbhwidUajg+x/QBsWG50PRsSRfpFSJbDC/zNilhaNVOboWIN+JQ7PoNcHxi+sTHYZRntg4MVBYXk9xsWpVs8dcqwrT5IfGNjCJ0+DQDYd+qU4Wlurv5+diHNhkvL7CyiU1NwyLK2XWtvb17NxTM8jD/pjikfPYonJyZgl2VtG77vpbfe0sLK1d+P/adP523XOTKCP589i/Vtms3ko0exP/s5gNz+k+EwWnt7AQB/yQ5HdQ8MwJUNEDUS0WpYjRoWm8Eg2ssNiyqW9eCjd7wd7E6c36W/9lPjdtyZk8CbrwOn7rILb3SdNdfcvpu7eDYCbwebd3H7Lgu/7x3JjWQ69rxx20osLrGa2K8vA8/2sc8fXWe1BQqKMqSibCCG1CO+UhVTm6G2FhbEoobw6P338Zf33jOUdY6MVBQUALuAc6vT03nbfnP+PO6NjODeyIgWFJ7hYUNQbC0sQI1ESraXtwYCSCsKNmZmtGUqHNlltwEWXP4f/UgLgK2FBa3T1iHLeCobDpLfj326QFmdnsaarglGvw8RPwbHO4Ydsmz4Lgpphqa4ip7tXsX6O3fm2X979ucu9uOjuWYXPR4UANv21Ww7PsACo9F8MMk+1+ISu7hH19kF/c2T4pblO3OSNSstLrEw+uQGO8YHZ8UtSVFV/LwWY2rNopEVqmFw5QQFwC7g3FYwqHuluD26oNCvvltq6Ww1HMafJiaQVhRIfj/+enISdt1F2jUwoIXd6vQ0wtm7965Tp7Ty1kAAUleX9m/98beCQTxx4oRWm4kWGE6qP0ax8ylmc2EB0Q8/rOyCXGOl/n8bqH8SS8rC74oBdgf+0r+wphRvB7sgrq6xSWiAMSgANnqKj0ACciOOGknPU0Dwt+yz8bv/YsNYK/HOT1jg3L7LvqtGqlE1hSqHeBdialiYulCbBdavXMHe0dG8i9zGzExZF46dzPzlAZNSFMPqu9GpqW3DYisY1I6nRiJIKwrssgxH9tz1waWvKfDQ4PQP//nWK69g76juVjVLbO7i9DWv5fffN5xPbG4O7UePaq+LwpOTZQdqvezk/2e1xMDQ7sBt+UFRTad4rVlxMfd2ULNTIzE1LBoZ78wWgwIAOkdHkY7FSg6Z3dQ1s7UfPZp3Ny75/VrzkhoOV9WHkypxIeOhIf5dpH9NDYcN+01k7/oTFlzUGz0oasXbkT+08/ZdNjT03Z+zf4tNNsWCwooLMiHl2hVhwYNCf6fM79Q53sa+XWDE5+agRiJaKPjGxrTtJb8fT77xBtqyzUSr09OIzc1hc2EB7oEBOGQZHUNDWmeyvh9jJ/QXY1d/PzauXwfAPgcPrL+8955hu43r17XzbR8c1IJEKTJBTV/b8gwNaTUYye/ftlZBjA73AVezy2ZwvNObBwZXLCgACgtSX6aGheT3l9WcU0uFgoL3UXiGhvJGSQHbB8Y3587hqWzntW9sDJ0jI0grimEIphoOa/uIz81pF+8nJybg/f73Wd9Dkaafcq1OT2ujujpHR9H29NMAWHAA7BzUSARbwaC2nW9sDC1+P9KKYhj+qxSZsb0+M4MnTpyAXZbhHhhA4Nw5JL/5pupzbxRlD5sF2HDEHc6MffV4flgA+YEx8QtjH4UeXyqDkLI4vGJJ1UwdDSV1dYlFdWWXjZPyAGNndqFRUqUm5W1cv67NKwDYMcSgWHr7bS00ly9eNCwt4ervR2sgYGjS2om0oiBy7pz2b1d/vxYUaUVB5Px5JLN9HZFz57Tz3TM8bOgrCZ87VzTgxWNIXV1w9ffDLssNO/KtEvqfi5Lse8SSso2Pso7fQi5cZk1S4z8tHhQAW521WVy4VPtJhERg8rBZwOSaRaPdcaYVBcvvvYd9E2zqe6FRT+IoKTUcLrlkSXRqCsrMDFwDA2g/ehR2WYYaiSARDGqT9PRCp0+zIbRDQ0grijZS6InsBDx+PimFTfIDgLjQNLT+2Wewt7cbytauXEF8bg7ekRHtu98KBvMm25W73XbH4LUSNRJBdGoKrb29hnAC2EAB3g/SDCq6uZGPAdFfi6Vle/ffcktwi85uExIACxu+FEYjOvsfbCXa8RFWA+ITEA9/m5rO6saCsDB1BndsdlabX9BIPEND8I2N5QWF3t6XX8ae4eFttyGPl0MFhgsXtXwW+POPxdKKnP1N7uE85Tr87dzIqUbFlwd/83U2k3viF8DqOhv+Sk1ndeA6DDz9hVhaNXNrFr29sMty3p11va1duVJycb9H77+P6IcfNty5E2uUmhSZx31MLKkYX7/ox/9e3pyJiR/mHjrUSBYf5Bb4E4e28rWg+N/5w534/ItLV1i52DR39fPcA4wO97HFAgHj+489D1yYAs5khxgXe8+u5/6eWGIKU8PCke241a+J1EwoKHYPz9CQWLQ91+GqOrk5vt7R1c9ZH8Xtu8bXvR1sG75cd6NZfMCa0/jzsCd/kx9mfDTX+HH2+X72y/zhw7++zNa68nYUHgH2yQ3W8c/f37Mf+DFfdPD1wu+Z/M/Gr4XVhMea1DS1gxtojmUeCHFVWrMAAF/hUWOV4qu5fvFfwMrv2QXu41+xZzus/J5dJBsxKADgzC9ZUPTsZ0t9vPMTYwgUw1eo5RfzxaXsgoEPcmHw8a9yT9y7cNn4bIzFB2wb/sQ+HhRnTrL39exn5bu+Y93ZY9mT8kytWQCset+ITVGEcJ7h4cpGQnG+CdOfRNZss5TvZGtCp/4p90jUy9OFhwbrHTuS2350KLeOFA+EqG7ZE+7q57kmrZ79uVVs+Uq3x47kZr2PvsRqOZ/cYP0mu5ZJNzSFmB4WAFukb7u5CoTU045rvw4v0PkqsLLzUVGPIzNGyHg9rE8C0P33SK5vp1RH+a5vegJYrcKiJijAorDwjowUXJWVkHrbca2C858B1i5X3XfRrL53hK1+y+eELC6xu/mdOj7MhtpG11ggeD1sNBWQq4mI+HDcq5+zvgtvR+58Rou8Z1fwjlsyZJYzvc8CYB3d/CE+hDQKPou9KlKPpVX9RnfmJGsSWlxio7omf2Mc1VQp3mEdXWeh8Y+n2PO2XztefI7GsSO5EVE/+2XuueaNPh/FUs4ewP+mWGoqU+dZiEo9WIeQWiq1LHzZUlEg+FJVD0RqZotL7K5+8UGuv2XxQW4SHu9kPj6c7Zf4X1Zj4DUF/l79pD3e4Q2wfWr7Xcp/P1fsPbtSX9DSWgVgcVikFMXwZDdC6qVzZESbMW8KdRH4v7/btc1RpIH4z1heqwAsaobiHLKMA2+9VdmCbYSYrDUQqL75SST1AH/1gVhKSG35JmoSFIDFYQGw9XcoMEi9tAYC2iNmTScfA/a/K5YSUhveceDJd8RSy1jaDKVXaBE/QqzkHhjAU2+8YU1Q6K1dAh68Rk1SpHZ8EzUNCqCGYQGwwHg4Odm0y4GQ5mF6H0Up6iLr9E4siq8QYh6Hl/VR1GFEXk3Dglu+eBErU1M0y5uYTvL7sW9iQls+vaZSUTbDe/ms+Aoh1ZOPsdpE22HxlZqoS1gAuafJlVoNlpBy2GUZnSMj6BwZsb7ZqRR1EQi9BihXxVcIqVwdaxN6dQsLjodGbG6O+jNIxdp6eyEfPdoYISHavM1qGbt4xjepgnyMLS/jHRdfqYu6h4VefG4OGzMz2AoGsbmwQM1UJI/k92tP6WvTPa2v4a1dAmJXgfgdqnGQwqQeoP0Y0PYs0DkO2L3CBvXVUGEhSisK1OxzpMnuJvn9sMty49UedkpdZLUNqnHsbg4v+2Px7GszNHRYEEIIaQyWT8ojhBDS/CgsCCGElERhQQghpCQKC0IIISVRWBBCCCmJwoIQQkhJFBaEEEJKorAghBBSUotY0CiUdAwryXUk0ioSmQTUTFLchBBCmppsdwMA2h0udLZ4INkkYYvG0TBhoaRjWNgMIaIuYyW1RuFACNl1ZLsLfskHf8teHGjd11DhUfflPu4nHuJePIhI8pH4EiGE7FqSrQXdzn0YcB2E7GA1kHqqW1iE1WVc37gDJR0XXyKEEKITaO2ue2jUPCzUjIrPNu7gQSIsvkQIIaQI2e5Cv+sgetsOiC/VRE3DYiW5imvrN6k2QQghO9TXFsCA+xAkW227nGsWFsGt+7ipfEUd14QQUqXOlj14of25mjZL1SQsglv3MbPxB7GYEELIDsl2F4Y9gzULDMsn5YUSDykoCCHEZEo6jmsbt2rWWmNpWCipGG4pX4nFhBBCTLCSXMVN5Uux2BKWhsX02gx1ZhNCiIWCWyHMx4NiseksC4vZ2D0KCkIIqYG5+NeWN0dZEhZKKob5TeuTjhBCCJDIqJiN3ROLTWVJWMzWIOUIIYTkzG8GoaRiYrFpTA8LJRVDKPFQLCbEwNvigb/FJxbXTL2PT4gV5jcXxSLTmD4FMKwuU63iMSTZJDjtkil3LoHWbgy2PwsAuKl8iXsW/oAD0EIhARXR5Jrh+LOxe5iLf63fnJCmFdwKWTa72/Q9BrdCYhFpcpJNwrBnEE67hE/XbyCaXBM30fglHwLObrFYcyv2JfxS7o7eL/ksDQvZ7sLwnkEAwMJmCNeTd+DULfvsl3wAhQV5TCQyKlaSq4bfMbOYGhaJjEpLjT9meFB0tngAAIPyM/jt6u+ErXJkuwu9bcXDYi5+D3Oxe0AmA6fdiS/qMA8nuBWC19EBp92Jubi1nYKE1NrCVqjxwyKsLotFpImJQbGSXMX02oywVXHhxHLe8OlERgVgQ3DrASuw2QAAssMN2eYCACiZOBJpFd3OLgBAJPmoYPOXZJPythGbnArJANrxE9kmU2+LB04UftDMSmpVa1rVH1NJxRFJLhveG0my3wF9f4i2jU1CRPgdkWwSOh3s+xU/N9+/qNxz4PySD7LdhURGxYNE2PBd6z8bYNx3IqMimlov+N2TxiX+jJnF1LAo9stJmo/scOOF9u/mBUUl/VHBRKhgs2ShPoOAcz8G3IcAAKFEGF2Sz9DuOhv72lALKLTy5mzsawy4DwJgNy5XigRbZ4sHwx7WNMWP/2LHd7VHXIqmVq5AzSTR2bIHw55BwzHnN4PodnZp7724/D8AoDV9KakYgokH6HcdZOck/CJ3O7u072J+M4je1gOG/bPlcu5o33sl5yA73GztIDsLBoAtEaGkc6E6vfqZ1hrQ1xbAc/J3tG058bsnjU1Jx6Fmkqb3W5g6GiqaorBoFts9rpFfZKoJimp0O7vyftAH3Ae1C1xnyx48J3+n4DZW4d+JeMy+tkDRkAHY+/pd5Z1XX1sgb//dzn1aiFZ6DmJQANnHdhYYBTbgPlQwKAD2vR5q6xGLSQOzojZoavQk0qpYRBoQb14KJcJ5d4zi3Wg1QTHY/qx21wzk7nhLUVIxfLR6DWomiefc30GfKwAA6Hb6EUkuo0934eJL3zttEl7seB7ebMBVamrlY+3vA+5D2gU+lHgIJR3Hc+5cOK0kV7W7/b62gHZ+xagZFfe3wnlNciIlFcPMxh1Eko8Md/l9bQHMxu4h4Nxf9jnwpieg+H45p00yBBqvbei3HXAfsnQgAjHXo9Tajn8XijG1ZlHql4E0hhc7WPPSgPsg+l3srhUwNyiqoZ/UqV8JQLI5AUBr4wdYE4maSUJJx/Hp+g2tfKf2O7u0Cye/yAKs6Yq7pXzF2vLT8bKWWfgoeg3XlTt5wSxa2AppTULzm0GEtnLzlTodHnTpOi1LnYO/Za/297ubuWfcz28G89q09ReV+4mHBbd12iR4HR3admT3MbVmQZrDrdgfteYM3nQTTIRMD4q78QU8UM1/fK5kz/3Y6m9Qqr1ZkR1u/H37YQAsKIp9fv1xEhkViUwir2mIU1Kxss9L3G4ltYZu7AMAOO3GZsNKzkH8DLxTn9M3VcWE5ouNdBz+7N/1Q47J7mNqzYI0Bx4EvF1zwH0Q/7DnBVODAgCiqXVE1EfaH7Oo6dx56dvfu53swroT+v4ANaPmrZi8ofv7/uxoISA7iqtAf8FO6GsOAHBA93kSabWic9D/v9PvV7JJhloSAKyk1rW/e1v26F4xvlcMM7K7FL4V2SHZ7qIfqCbBA2HYw560pW8LNyMorBRSH2pNJ4Mdz2I+HoTTLqGvbfu+g+0Mys/ownLNME49lHiIiLqM3tZuAKz9fm/LHqwk1/L6CqoRyO4/nD0W/4xKKoZI8hGcCWfZ5xBKPNT6G/T7ZZ3hxk7vaHIVSioG2eFGl+TDYPuz2jnobyDod7t5WFELNDcsHG6AJuU1DSUdNwRGMwQFAMzHFxFwdmfvqF3aRVHN7HyAhezIXUD9ks8QFtOrMQS3Quht7YZf8sFpkxBo7Uaglb2uZswZppjIqNn9sos7N5udYc5Dq5xzUNJxzMeDWpDo96tmVIij4WaUP+DFjuch2VryzkHNqLi2flO3NWl0ThN+HkWmNkOZ8QtDaosHRigRNiUoWGdzDEo6VvTibdyGHW+794nliWwz0cLmfW2bsLqcbTpi27LJf0z++/OPr6TY/INCf7hr6zexsHlf289KchWfrt/I3nUbt+X/1jcdlTIbu2f4THz/+rkqlZzDrdhXmIvf05ob1YyKm8qXuJ/I70eKqMv4KPopQrrX1IyKsLqMj6LXQLWK5tIpNCeawZbJZDJi4U7dTzzE7+gOhJCy6ScozmzcKTiJcSckm6Q1RSQyqiGAX+h4XpulPbVyhYLgMSM73BjxviQWV83UqoDYQUcIqQ8bgJFOdsHgtUclFYNf8umWCil/pBZpHvph02YyNSycNgn+Fl/e2jSEkNpKZFSEEuHsMiCugneaCybVYkhjseqm3dQ+C4DNsiWE1N/1jTuGPhC9+fgCPcfjMeS0SVUNId+OqX0WALuj4QuvEUK2J9td8Eus2SCiPrKkWUi2u9Dp8MDb4oGSjll2HFJ/+j4ws5keFkBtnn5GCCHEaKRzKG8ejVlMb4YC2IQhGkZLCCG1E9BNorSCJWHhtFU3m5YQQkj5JJukLWVvFUvCAgD6XAHTl8glhBCS7xn3IUtrFYCFYcGfL0DNUYQQYp1Aa3dNHk5lWVgAbBTGd+W/FYsJIYSYQHa4a3aNtTQsAJZ6+gfsEEIIqV6xx+xaxZKhs4XMbwZxS/lKLCaEEFIh8amWtVCzsADYEsu3Yn+05GHihBCyG/glX136g2saFgBb1Gxm/Q6tH0UIIRWQbBKecR+qSWd2ITUPCy64FcJs/GuqZRBCSAn+7BMMa9nsJKpbWHAUGoQQUli3cx/62noMT26sl7qHBRdWl/EgEUY4uYxock18mRBCHnuSTUJniwfdUhd62w7UvF9iOw0TFnpqJolHyVWoGRUrFByEkMeYbHfDaW9BZ4sHst0tvtwwGjIsCCGENBbLJ+URQghpfhQWhBBCSqKwIIQQUhKFBSGEkJIoLAghhJREYUEIIaQkCgtCCCElUVgQQggpicKCEEJISRQWhBBCSvp/LYUu7LUkt1IAAAAASUVORK5CYII=;" parent="XVMjXSrSxOzAq-W35Vz7-32" vertex="1">
          <mxGeometry x="210.9699999999998" y="50" width="69.03" height="90" as="geometry" />
        </mxCell>
        <mxCell id="XVMjXSrSxOzAq-W35Vz7-40" value="" style="group" parent="1" connectable="0" vertex="1">
          <mxGeometry x="2245" y="120" width="295" height="160" as="geometry" />
        </mxCell>
        <mxCell id="XVMjXSrSxOzAq-W35Vz7-41" value="" style="rounded=0;whiteSpace=wrap;html=1;" parent="XVMjXSrSxOzAq-W35Vz7-40" vertex="1">
          <mxGeometry width="295" height="160" as="geometry" />
        </mxCell>
        <mxCell id="XVMjXSrSxOzAq-W35Vz7-42" value="Print" style="text;html=1;align=right;verticalAlign=middle;whiteSpace=wrap;rounded=0;" parent="XVMjXSrSxOzAq-W35Vz7-40" vertex="1">
          <mxGeometry x="110" y="10" width="170" height="30" as="geometry" />
        </mxCell>
        <mxCell id="XVMjXSrSxOzAq-W35Vz7-43" value="006" style="text;html=1;align=left;verticalAlign=middle;whiteSpace=wrap;rounded=0;fontSize=23;" parent="XVMjXSrSxOzAq-W35Vz7-40" vertex="1">
          <mxGeometry x="15" y="20" width="86" height="20" as="geometry" />
        </mxCell>
        <mxCell id="XVMjXSrSxOzAq-W35Vz7-44" value="Cancel -" style="text;html=1;align=left;verticalAlign=middle;whiteSpace=wrap;rounded=0;fontColor=#CC6600;" parent="XVMjXSrSxOzAq-W35Vz7-40" vertex="1">
          <mxGeometry x="20" y="80" width="170" height="30" as="geometry" />
        </mxCell>
        <mxCell id="XVMjXSrSxOzAq-W35Vz7-45" value="Timeout -" style="text;html=1;align=left;verticalAlign=middle;whiteSpace=wrap;rounded=0;fontColor=#990000;" parent="XVMjXSrSxOzAq-W35Vz7-40" vertex="1">
          <mxGeometry x="20" y="100" width="170" height="30" as="geometry" />
        </mxCell>
        <mxCell id="XVMjXSrSxOzAq-W35Vz7-46" value="HardwareFault 321" style="text;html=1;align=left;verticalAlign=middle;whiteSpace=wrap;rounded=0;fontColor=#990000;" parent="XVMjXSrSxOzAq-W35Vz7-40" vertex="1">
          <mxGeometry x="20" y="120" width="170" height="30" as="geometry" />
        </mxCell>
        <mxCell id="XVMjXSrSxOzAq-W35Vz7-59" value="" style="group" parent="1" connectable="0" vertex="1">
          <mxGeometry x="2640" y="310" width="295" height="160" as="geometry" />
        </mxCell>
        <mxCell id="XVMjXSrSxOzAq-W35Vz7-60" value="" style="rounded=0;whiteSpace=wrap;html=1;" parent="XVMjXSrSxOzAq-W35Vz7-59" vertex="1">
          <mxGeometry width="295" height="160" as="geometry" />
        </mxCell>
        <mxCell id="XVMjXSrSxOzAq-W35Vz7-61" value="Close" style="text;html=1;align=right;verticalAlign=middle;whiteSpace=wrap;rounded=0;" parent="XVMjXSrSxOzAq-W35Vz7-59" vertex="1">
          <mxGeometry x="110" y="10" width="170" height="30" as="geometry" />
        </mxCell>
        <mxCell id="XVMjXSrSxOzAq-W35Vz7-62" value="301" style="text;html=1;align=left;verticalAlign=middle;whiteSpace=wrap;rounded=0;fontSize=23;" parent="XVMjXSrSxOzAq-W35Vz7-59" vertex="1">
          <mxGeometry x="15" y="20" width="86" height="20" as="geometry" />
        </mxCell>
        <mxCell id="XVMjXSrSxOzAq-W35Vz7-65" style="edgeStyle=orthogonalEdgeStyle;rounded=0;orthogonalLoop=1;jettySize=auto;html=1;" parent="1" source="XVMjXSrSxOzAq-W35Vz7-60" target="XVMjXSrSxOzAq-W35Vz7-4" edge="1">
          <mxGeometry relative="1" as="geometry">
            <Array as="points">
              <mxPoint x="2788" y="40" />
              <mxPoint x="168" y="40" />
            </Array>
          </mxGeometry>
        </mxCell>
        <mxCell id="XVMjXSrSxOzAq-W35Vz7-73" style="edgeStyle=orthogonalEdgeStyle;rounded=0;orthogonalLoop=1;jettySize=auto;html=1;entryX=0;entryY=0.5;entryDx=0;entryDy=0;" parent="1" source="XVMjXSrSxOzAq-W35Vz7-33" target="XVMjXSrSxOzAq-W35Vz7-41" edge="1">
          <mxGeometry relative="1" as="geometry" />
        </mxCell>
        <mxCell id="XVMjXSrSxOzAq-W35Vz7-83" style="edgeStyle=orthogonalEdgeStyle;rounded=0;orthogonalLoop=1;jettySize=auto;html=1;entryX=-0.007;entryY=0.505;entryDx=0;entryDy=0;entryPerimeter=0;" parent="1" source="XVMjXSrSxOzAq-W35Vz7-4" edge="1">
          <mxGeometry relative="1" as="geometry">
            <mxPoint x="457.93499999999995" y="440.8000000000002" as="targetPoint" />
          </mxGeometry>
        </mxCell>
        <mxCell id="rZsei8qSga9DJnhZ48z5-1" value="Dep. sobre" style="text;html=1;align=center;verticalAlign=middle;whiteSpace=wrap;rounded=0;fontFamily=Comic Sans MS;fontColor=#0000FF;fontStyle=1;fontSize=23;" parent="1" vertex="1">
          <mxGeometry x="750" y="670" width="200" height="30" as="geometry" />
        </mxCell>
        <mxCell id="rZsei8qSga9DJnhZ48z5-2" value="" style="group" parent="1" vertex="1" connectable="0">
          <mxGeometry x="980" y="120" width="295" height="160" as="geometry" />
        </mxCell>
        <mxCell id="rZsei8qSga9DJnhZ48z5-3" value="" style="rounded=0;whiteSpace=wrap;html=1;" parent="rZsei8qSga9DJnhZ48z5-2" vertex="1">
          <mxGeometry width="295" height="160" as="geometry" />
        </mxCell>
        <mxCell id="rZsei8qSga9DJnhZ48z5-4" value="Login" style="text;html=1;align=right;verticalAlign=middle;whiteSpace=wrap;rounded=0;" parent="rZsei8qSga9DJnhZ48z5-2" vertex="1">
          <mxGeometry x="110" y="10" width="170" height="30" as="geometry" />
        </mxCell>
        <mxCell id="rZsei8qSga9DJnhZ48z5-5" value="002" style="text;html=1;align=left;verticalAlign=middle;whiteSpace=wrap;rounded=0;fontSize=23;" parent="rZsei8qSga9DJnhZ48z5-2" vertex="1">
          <mxGeometry x="15" y="20" width="86" height="20" as="geometry" />
        </mxCell>
        <mxCell id="rZsei8qSga9DJnhZ48z5-6" value="Cancel 322" style="text;html=1;align=left;verticalAlign=middle;whiteSpace=wrap;rounded=0;fontColor=#CC6600;" parent="rZsei8qSga9DJnhZ48z5-2" vertex="1">
          <mxGeometry x="20" y="80" width="170" height="30" as="geometry" />
        </mxCell>
        <mxCell id="rZsei8qSga9DJnhZ48z5-7" value="Timeout 324" style="text;html=1;align=left;verticalAlign=middle;whiteSpace=wrap;rounded=0;fontColor=#990000;" parent="rZsei8qSga9DJnhZ48z5-2" vertex="1">
          <mxGeometry x="20" y="100" width="170" height="30" as="geometry" />
        </mxCell>
        <mxCell id="rZsei8qSga9DJnhZ48z5-8" value="DeviceError 323" style="text;html=1;align=left;verticalAlign=middle;whiteSpace=wrap;rounded=0;fontColor=#990000;" parent="rZsei8qSga9DJnhZ48z5-2" vertex="1">
          <mxGeometry x="20" y="120" width="170" height="30" as="geometry" />
        </mxCell>
        <mxCell id="rZsei8qSga9DJnhZ48z5-10" value="" style="group" parent="1" vertex="1" connectable="0">
          <mxGeometry x="980" y="540" width="295" height="160" as="geometry" />
        </mxCell>
        <mxCell id="rZsei8qSga9DJnhZ48z5-11" value="" style="rounded=0;whiteSpace=wrap;html=1;" parent="rZsei8qSga9DJnhZ48z5-10" vertex="1">
          <mxGeometry width="295" height="160" as="geometry" />
        </mxCell>
        <mxCell id="rZsei8qSga9DJnhZ48z5-12" value="Login" style="text;html=1;align=right;verticalAlign=middle;whiteSpace=wrap;rounded=0;" parent="rZsei8qSga9DJnhZ48z5-10" vertex="1">
          <mxGeometry x="110" y="10" width="170" height="30" as="geometry" />
        </mxCell>
        <mxCell id="rZsei8qSga9DJnhZ48z5-13" value="003" style="text;html=1;align=left;verticalAlign=middle;whiteSpace=wrap;rounded=0;fontSize=23;" parent="rZsei8qSga9DJnhZ48z5-10" vertex="1">
          <mxGeometry x="15" y="20" width="86" height="20" as="geometry" />
        </mxCell>
        <mxCell id="rZsei8qSga9DJnhZ48z5-14" value="Cancel 322" style="text;html=1;align=left;verticalAlign=middle;whiteSpace=wrap;rounded=0;fontColor=#CC6600;" parent="rZsei8qSga9DJnhZ48z5-10" vertex="1">
          <mxGeometry x="20" y="80" width="170" height="30" as="geometry" />
        </mxCell>
        <mxCell id="rZsei8qSga9DJnhZ48z5-15" value="Timeout 324" style="text;html=1;align=left;verticalAlign=middle;whiteSpace=wrap;rounded=0;fontColor=#990000;" parent="rZsei8qSga9DJnhZ48z5-10" vertex="1">
          <mxGeometry x="20" y="100" width="170" height="30" as="geometry" />
        </mxCell>
        <mxCell id="rZsei8qSga9DJnhZ48z5-16" value="DeviceError 323" style="text;html=1;align=left;verticalAlign=middle;whiteSpace=wrap;rounded=0;fontColor=#990000;" parent="rZsei8qSga9DJnhZ48z5-10" vertex="1">
          <mxGeometry x="20" y="120" width="170" height="30" as="geometry" />
        </mxCell>
        <mxCell id="rZsei8qSga9DJnhZ48z5-17" style="edgeStyle=orthogonalEdgeStyle;rounded=0;orthogonalLoop=1;jettySize=auto;html=1;entryX=0;entryY=0.5;entryDx=0;entryDy=0;" parent="1" source="XVMjXSrSxOzAq-W35Vz7-9" target="rZsei8qSga9DJnhZ48z5-3" edge="1">
          <mxGeometry relative="1" as="geometry" />
        </mxCell>
        <mxCell id="rZsei8qSga9DJnhZ48z5-18" style="edgeStyle=orthogonalEdgeStyle;rounded=0;orthogonalLoop=1;jettySize=auto;html=1;entryX=0;entryY=0.5;entryDx=0;entryDy=0;" parent="1" source="XVMjXSrSxOzAq-W35Vz7-9" target="rZsei8qSga9DJnhZ48z5-11" edge="1">
          <mxGeometry relative="1" as="geometry" />
        </mxCell>
        <mxCell id="rZsei8qSga9DJnhZ48z5-20" value="" style="group" parent="1" connectable="0" vertex="1">
          <mxGeometry x="1430" y="120" width="295" height="160" as="geometry" />
        </mxCell>
        <mxCell id="rZsei8qSga9DJnhZ48z5-21" value="" style="rounded=0;whiteSpace=wrap;html=1;" parent="rZsei8qSga9DJnhZ48z5-20" vertex="1">
          <mxGeometry width="295" height="160" as="geometry" />
        </mxCell>
        <mxCell id="rZsei8qSga9DJnhZ48z5-22" value="SetExtrtaData" style="text;html=1;align=right;verticalAlign=middle;whiteSpace=wrap;rounded=0;" parent="rZsei8qSga9DJnhZ48z5-20" vertex="1">
          <mxGeometry x="110" y="10" width="170" height="30" as="geometry" />
        </mxCell>
        <mxCell id="rZsei8qSga9DJnhZ48z5-23" value="004" style="text;html=1;align=left;verticalAlign=middle;whiteSpace=wrap;rounded=0;fontSize=23;" parent="rZsei8qSga9DJnhZ48z5-20" vertex="1">
          <mxGeometry x="15" y="20" width="86" height="20" as="geometry" />
        </mxCell>
        <mxCell id="rZsei8qSga9DJnhZ48z5-24" value="Cancel -" style="text;html=1;align=left;verticalAlign=middle;whiteSpace=wrap;rounded=0;fontColor=#CC6600;" parent="rZsei8qSga9DJnhZ48z5-20" vertex="1">
          <mxGeometry x="20" y="80" width="170" height="30" as="geometry" />
        </mxCell>
        <mxCell id="rZsei8qSga9DJnhZ48z5-25" value="Timeout -" style="text;html=1;align=left;verticalAlign=middle;whiteSpace=wrap;rounded=0;fontColor=#990000;" parent="rZsei8qSga9DJnhZ48z5-20" vertex="1">
          <mxGeometry x="20" y="100" width="170" height="30" as="geometry" />
        </mxCell>
        <mxCell id="rZsei8qSga9DJnhZ48z5-26" value="HardwareFault 321" style="text;html=1;align=left;verticalAlign=middle;whiteSpace=wrap;rounded=0;fontColor=#990000;" parent="rZsei8qSga9DJnhZ48z5-20" vertex="1">
          <mxGeometry x="20" y="120" width="170" height="30" as="geometry" />
        </mxCell>
        <mxCell id="rZsei8qSga9DJnhZ48z5-27" style="edgeStyle=orthogonalEdgeStyle;rounded=0;orthogonalLoop=1;jettySize=auto;html=1;entryX=0;entryY=0.5;entryDx=0;entryDy=0;" parent="1" source="rZsei8qSga9DJnhZ48z5-21" target="XVMjXSrSxOzAq-W35Vz7-33" edge="1">
          <mxGeometry relative="1" as="geometry" />
        </mxCell>
        <mxCell id="rZsei8qSga9DJnhZ48z5-28" style="edgeStyle=orthogonalEdgeStyle;rounded=0;orthogonalLoop=1;jettySize=auto;html=1;entryX=0;entryY=0.5;entryDx=0;entryDy=0;" parent="1" source="rZsei8qSga9DJnhZ48z5-3" target="rZsei8qSga9DJnhZ48z5-21" edge="1">
          <mxGeometry relative="1" as="geometry" />
        </mxCell>
        <mxCell id="rZsei8qSga9DJnhZ48z5-29" value="" style="group" parent="1" connectable="0" vertex="1">
          <mxGeometry x="1430" y="540" width="295" height="160" as="geometry" />
        </mxCell>
        <mxCell id="rZsei8qSga9DJnhZ48z5-30" value="" style="rounded=0;whiteSpace=wrap;html=1;" parent="rZsei8qSga9DJnhZ48z5-29" vertex="1">
          <mxGeometry width="295" height="160" as="geometry" />
        </mxCell>
        <mxCell id="rZsei8qSga9DJnhZ48z5-31" value="BagDropDeposit" style="text;html=1;align=right;verticalAlign=middle;whiteSpace=wrap;rounded=0;" parent="rZsei8qSga9DJnhZ48z5-29" vertex="1">
          <mxGeometry x="110" y="10" width="170" height="30" as="geometry" />
        </mxCell>
        <mxCell id="rZsei8qSga9DJnhZ48z5-32" value="101" style="text;html=1;align=left;verticalAlign=middle;whiteSpace=wrap;rounded=0;fontSize=23;" parent="rZsei8qSga9DJnhZ48z5-29" vertex="1">
          <mxGeometry x="15" y="20" width="86" height="20" as="geometry" />
        </mxCell>
        <mxCell id="rZsei8qSga9DJnhZ48z5-33" value="Cancel 317" style="text;html=1;align=left;verticalAlign=middle;whiteSpace=wrap;rounded=0;fontColor=#CC6600;" parent="rZsei8qSga9DJnhZ48z5-29" vertex="1">
          <mxGeometry x="20" y="80" width="170" height="30" as="geometry" />
        </mxCell>
        <mxCell id="rZsei8qSga9DJnhZ48z5-34" value="Timeout 316" style="text;html=1;align=left;verticalAlign=middle;whiteSpace=wrap;rounded=0;fontColor=#990000;" parent="rZsei8qSga9DJnhZ48z5-29" vertex="1">
          <mxGeometry x="20" y="100" width="170" height="30" as="geometry" />
        </mxCell>
        <mxCell id="rZsei8qSga9DJnhZ48z5-35" value="DeviceError 318" style="text;html=1;align=left;verticalAlign=middle;whiteSpace=wrap;rounded=0;fontColor=#990000;" parent="rZsei8qSga9DJnhZ48z5-29" vertex="1">
          <mxGeometry x="20" y="120" width="170" height="30" as="geometry" />
        </mxCell>
        <mxCell id="rZsei8qSga9DJnhZ48z5-36" value="" style="shape=image;verticalLabelPosition=bottom;labelBackgroundColor=default;verticalAlign=top;aspect=fixed;imageAspect=0;image=data:image/png,iVBORw0KGgoAAAANSUhEUgAAAYsAAAIDCAYAAAD16zKjAAAACXBIWXMAAA7EAAAOxAGVKw4bAAAACnRFWHRsb2dpY2FsWAAwZeNEqwAAAAp0RVh0bG9naWNhbFkAMGQhLpwAAAANdEVYdHNjcmVlbgBIRE1JLTB8/vG0AAAgAElEQVR4XuzdQWwbV54u+k9JPFGidFy6PS0rc2egYnDxokUMlYA3sPA2LMUXcDZjloB34fbFA1h6Y6AHd0NqdRvd80BqkUzftyG1mUGjfR8p3EE7wVuQSm9i4Dosrq6EeQBLiBb2XZgl9HRGUk+apcSymXbi8xalc1RVpFSyTdmO/f0AQdI5p04Vi4fnX+ecIjkkhBAgIiI6wkvxBCIiojgGCyIiSsRgQUREiRgsiIgoEYMFERElYrAgIqJEDBZERJTolXjCSfI8D1tbW9ja2sLu7i4A4MyZMxgfH4eu69A0LbYFERE9C4aexJvyHMfB2toaut0uAGB4eBjDw8MAAN/3VbmpqSmYpsmgQUT0jDnRYLG1tYWPP/4Yvu9jfHwc77zzDra2tjA5OQnDMFQ5z/Owvr4O13UxPDyMdDqNmZmZUE1ERPQ0nViwcF0X169fR7fbRSaTwdbWFt5//32V5/s+DMNQo4hut4tPP/0Ut27dQrfbhWmaSKfT4SqJiOgpOZFgsbW1heXlZQwPD2N8fByXLl2C53kAAF3XAQTTT6urqzAMQ+XJ0Ua9Xsfm5iZ+8pOfcEqKiOgZMPC7obrdLj7++GMMDw8jm83izJkzAIIgIYOCNDw8jOvXr0PXdczMzKi1DMuykMvlnslA0e124fu+Wn9JIsufhIc5DqLnleM4cBwnnnxsnufBsqwTe50+LwZ+N9Tq6ip838elS5d6Ovvx8XGsrq7C8zy89dZbmJmZgWmaqNfreP/999Wit/zteR5u3ryppq8O43kems1mPBkA8M4772ByclIdi+u6WF9fj5UKvPrqqz3rKdLq6irW1tYiDWp8fBznzp3rKd/tdlV52ZlrmoaJiYnI45SB9ShTU1OR+uWIbH19PVL3O++8A9M0Vd1AcMy3bt3C8PAwLl26pNLDeWfOnFHn99NPP8X29naknHTmzBnMzMz0PKc0OI7joFgsRtIMw0A+n1cjcupVrVaxubkJ0zTjWcfiui5WVlbguu4j1/EiGGiw6Ha7WF9fx+TkJCYnJyN53v5ts9vb27AsK9KpmaaJ1dVV9UR5ngfHcbC5uQkgeMGMj4+r8nG+7/eMWiTP87C2toaf/OQnGB4ePrIsALVmEl5g//TTT7G2thYqFdja2sLKygp2d3cj6yvLy8vY2toKlQyO0fd9Nb02PDyMbrd75LEAwMTEhPpbTu/FRxO+72NtbQ23bt1Sdcvynuf17eBlXjxNnvM4b/8mBE4Nnhxv/6Kn0WgACJ7XxcVFrKysoNVq8byfEMuycAKz8c+dgQaLmzdvwvd9ZDIZlba1tQXHcaDrugoK3W43Eiw0TVNTUv/yL/+Czc1NaJqGCxcu4Pr167h169aRwSIsk8moF9WtW7fUSMd13Z47rLLZrPq72+3i+vXr8H0fzWYThmFgeHgYruuqQGEYBi5cuKCCzscff6we38TEhJpqk4Eim82qK8LV1VVVf79jMU0Tp0+fjqQBwehF+vjjj9HtdqFpGjKZTN+619bWHvvGAF3XI3XITqzb7cJxHFiWFSpNgxa+ujVNE6Ojo6jX67BtG0AQRMrlspp6sW1b5UnFYlHdSGJZFmzbhqZp8H0f+XwexWIxMlpxXRflchnValVtbxgGfN9HvV5X9eTz+WPt33EcVKtVdbEij0HK5/OwLAuO46jj7FdPXLjeVCqFQqEQLwIgKFcul+H7vip32OhMPvZyuQxN09Q50HX9yDrkeQgfvzxHh9UlzysAdQ4Pq7/fYw3ne56n9g/0fx4GaaBrFt7+laqu63BdF59++ilGR0dhmqZ6kIZhYHV1VW0jO6Bms4nV1VUMDQ3h0qVLyOVymJmZwfj4uKr3OHRdVz8XLlxQnW38Sh+Ilp2cnFQdZLfbVVfvMlDIDloGOU3TkM1m1f9yGsz3g2kqTdPUYwaAmZkZGIYRGSmETUxMwDCMnh95/LJBAkFAjNedTqehaRpu3ryp0h/V6dOnI+fGNE1MTU0BwKHTVHQy4qMJz/MwPT2NZrOpOqfFxUVMT0+rMvl8HsvLyzBNE5ZlYWlpCXNzcwCC9rm8vNzzmpLpkuM4WFhYwPLyMizLUvuZm5vD7OwsNjc3Yds2dF3H/Pw8yuWy2rZYLGJ2dhapVAr2fpCKl6nX65ifn8fm5iYsy4JpmlhYWMDCwoIqE1ev1yP7npiYwNzcXM+0crFYxNzcHKanp2HbNoQQSKVSqNfrkXKSfOzy9SUf+8LCgnrsjuNgdnZWlZHPQ/w8z8/P99Qlz//o6Kja5/T0NJaWlmCapjrG2dlZ9bzIxyrPoe/7kf27rovp6Wmsr68f2g4GbaAjC9/3MTw8jI8//ljN5V+/fj1SZnh4WF3hyKv2brcLXQ/ewS07PenMmTO4detWqIYnQ04TySBz7ty5WImgzNTUFNbW1nqCke8HV2SGYaiOPTziivP9YJoqTp4LGQTku93jTNOEeYLzrTJ4hkeEdPLkGoZ8bovFIkzTRKVSUWVs20YqlUK5XEY+n0ez2UQ2m0U+nwcQXKAtLi6q8g9DTokBQT2zs7OwbVvt396/kl1aWlKjjsXFRZTLZeRyOVXGtm3Mzc3B3g8esr7w49A0DQsLCygUCj1BEgAWFhYi+waCuqenp9XVuud5WFxcRKvVUml2KKgdd1SsaRoajYY6DsuykEql4OyPrOXz0mg01Osxn89jdnZ2v4YDnueh1WqpctVqFb7vR7a1bRuzs7OYn59Ho9GA67owDEONnCzLwtzcnFpXmZubg2VZkXNhWRamp6dRLBbV8Q3SQIPF7u6uulVWis8FdrvB3UFLS0sAgqv7dDoNXdfR7XZ7plE0TeuZoz/K1taW6nRv3rypOvF+01jO/jAaCDprGZRMM1goDnfe/bYHDtLlaGRychLNZhO+72N9fV1d9ei6rkYP/V4IKysr8SQAUI1FfjxKfNutra2e89MvmDyM7e3tyLnxPE+tZTzuFBclk8+ffM6r1apKW1lZQT6fjzw/QNDxyraWyWSwvLwMXQ9GhY96IRG/uJGdb3j6FgheL3JUIqdEdF3vOUZ5ASUDTLwtWZaFhYUFeJ6n9iU5jgPP81QAknRdRyaTUe2zXq9D13X4vh/Zv0zzPE+dy6PEX6f6/utXXvmvr6/3jPABIJfL9Tzu8AUjcHCMnuep+oDgZhZ5Hk3TxOLiIubn55HNZmGapgrcruvC87ye50Gei/hIa1AGGiz6kdNIw8PD6i4emZ5OpyML4cPDwz3Bpd/V9lH63V2kaVrPgjtwMHUUJo/rUQ0PB7cMN5tNeJ6njl82jLW1NVy6dKmnkcWDQJwMCK+++mokXb5DPuywedzj2toKPr8rLt7o6WQ4TjCPPzc3h0ajEenofT+YJ5dz4WHyuSnur0csLy9jfn5eXaEe96pairfJ+P/9yM5PjmrCdD2YPZAOqy/ensOS2p8MCPPz8/Es6PsB4ziSjq3T6fQt0+/44mnyQrLfMco6TdNEq9VCuVzG3NwcNC2Y9g6PGOL1yrR+/dogDDRYnDlzRl0NSXJaqtsNFrVN01RTOmtra3078W43uPV0e3sbvh9MbR3X+Pi46lCHh4fx1ltv4dy5c33rCF85bW5uwnVdbG1todlsIp1OR7Y5rJGF02V5TQvWN2T+1tYWbt26Bdd10e0GC+k/+clP1HZA7zpEnKz7m2++iaRPTk7i3r172N3dVS/U44iPRsJ0XVdrFN1ucMeWPP6pqakjj5Men67r0HUd2WwW8/PzkTuhJiYmkM/nezpjz/MinZec+vH9YBQ/Pz8P0zRVmXh7liOCxyVHBPG7t3w/mGZ91LYjt5PTMGGe52FoaAjAQUBqt9uRMo+7/7hUKtX3nPVLizMMA0NDQ5EpPqD3OTEMQ10UyDUe0zTVOXZdt+fxOI4TWRsZpJfiCY9D0zQ1LeJ5HqrVqgoUMzMzyOVyqhOWawLhTqvbDdYI5N1Ily5dQrfbPXQKqJ9Lly6pF8qPf/zjnk4/zDAOFpIzmYxafJbrA8PDwfoKEAw7+wlPMwHBE1iv19VQVNOCUU0mk8GFCxcA9F9sTyKPzfO8yDm7cOECLMtSnXuYfNz9AkO/NOn06dPqvMzMzESuSB/l2OnRFItF+H4wkpBs28bS0lLkwqBer6v5dAAYHR1VC8WaFqwDyo5I0zQYhhFZzJYBZRBku4mvkRT3F70fla4HU2pymkoqFouRK2nZVsNX4L7vY35+Xi3yD0I2m8XKykrkufE871jnUS6Yh58DzwsWzOXzls/nMT09rZ43GSB934emaTD3p6nC56JcLqPZbD72zMJhBjqymJycxNraGn75y1/C94MRgWkGd9K4bvAhgWHvvPOOWsgJz3XKN9HJ9YfHmRZ6GJqmYXNzM9KRTk1NqSklOeKQHMdRT2b4Snx9fR3Dw8MwjOi8Z/gFGyevfOJkYJXnttvtYmVlBRcuXFD1yAAbJ/Nl8JYBzfeD93sAh6/FhIWft6OCDA2WruvI5XJYWlpSi7TFYhG7u7tIpVJIp9PY3d2F67ooFouqoyyVSmpEAgQXNMViUbWHSqWCubk5pFIpTExMYH19HYZx8LE7j6tWq2F2dhb1el3N8+/u7vZcST+sSqWC2dlZTE9PY2pqCp7nYXR0FJlMJrKm12g0MDc3h+XlZfX4ZPqg2LaNzc1NdccYEHT4hUIhcXRhmiaKxSLs0GK9fA5KpRKAIFisrKxgeno68hjkqEKe4/C52N3dRblcVmUGbaDBQtd11bFcuHABhhG8VwEIOpxwhyWF38MwPBy8r0GSt9jGt3mSZmZmcOvWLWxtBe+ncF03MoICgg5XPkGGYaj3JCwtLeGdd97B8PAwtre31VV5vyfzsAVuXQ+mI3Q9uBGg2Wzi5s2b8DwP4+PjajQGBOc43JkbhqHedS4XPLvd6MeP9LvLq5943TR4ZmgRU8rn8z3TLqVSCdlsVr1WLMuKXIDYtg3TNOG6we3W+v5VuWQYhrrjxveD908A0SkU+T6BuEaj0dN+48et6zra7bZ6fwbQe4zVarWnHtmhx9OleL3yccU7Z8Mw0Gq11MVc/PHHyfOh7/cz+Xy+72MP32gABGuD2WxWjegsy+oJuIfVJbc97Dk67LFKmqapxyj3GT/HgzbwDxL0/WCY1I/jODAMA74ffGTFW2+9hTNnzmB4eFg9Caurq5icnFQdnGEEU0RHcd3g7fpAcDfCYfsHgmOQV+Hx4Zp8c9vw8HDkncq+H7xRL94ogWA0FX7/BRCUD99rLcmRluygfT95+K/vBwvJcRysr69H6h4eHkYmk8HNmzexvr4eeVxHHYsM6FJ1/2MTpqamehZDl5aWVKON34VB9KJxXReO4/SsHVWrVczPzx+6AP59NvBgIXmeh+Hh4FNnpZs3b+L69eswDKNnOkdGzU8//RQzMzNqaJfNZp+Zk+77wWK1vMKenJyMBIk4OY3W7QaL+7p+MPJ6HHI0IQPz+Ph4Yr3hYxkfHz/W9BMR9eftrzHkcjk1Reg4jlqEDr//4XlxIsGi2+3il7/8JYCgs/f9g/ubx8fH4ThO5EPp5DBK13XU68HHk3e7XWSzWXZqRPRMksEhPPWUz+cPfVPh992JBAsgOv3RbyrJcRwMDQ2pEcbKygpOnz6NZrOJ4eHgvQoMFET0rPM8T03RPo9BQjqxYAFEA4amaTh37pyaAhkeDha8m80mzpw5g/X14CO3dT14F+LzfNKJiL5vTjRYSK7rotkMPgLjMLp+8LEfRET0bHkiwUKSi6zhWz01Lfh01qQFWiIienqeaLAgIqLvp5fiCURERHEMFkRElIjBgoiea/0+EmQQHCf4IiQguPNTfgHV84rBgoiea0l3Yj4qz/PUp05rmvbcf3w/gwURPVd8v/8nOMcdp0xc+N3acfV6vecz1aSjtpOOczz9yvRLOwkMFkT0XPA8D6ZpYnR0FKOjozBNs28nXa/XYRgGRkdHMTQ0hOnp6b7lwsrlMkZHR5FKpSLfFxKm67r6sqJqtYqhoaGe7cLfswH0HnMqlYqU8TwPQ0ND6lN6w9/JIeuWj+OwxzsoDBZE9L3neR5mZ2fVN9C1223Ytt3zhUeO42Bubg5zc3PodDpot9uwLOvIgFEul7GwsIB8Po92u41Go4FOp9PzBU/9LC8vq/KFQgGLi4sqoADA7Oys+q4PWWZ5ebln7WNhYQG2bavvuygWi1hcXFTH1Gq1MDo6itnZ2UMfx2MTRETfc7lcTui6LjqdTiS9UqkIAKLRaAghhEin08K27UgZIYQwTVPkcrl4shBCCF3XD91G13X1/8TEhKhUKkKIg/22Wi2VL4QQmUxGWJYlhBCiVqsJAKLdbkfKlEoloWma6HQ6ot1uCwCqXknXdVEulyNpMv2wx/G4BvrlR0RET4PrBt+4Gf9MOcuyMD8/r/5fX1/vOx3k+37fr072PA+e5/X9DpdMJpP4fTTxL3IyjODL0YCD79AOjzSAgw8mDK9FhBfOXdeF53l9v0E0k8n0fRyDwGBBRN97mqb1BIqHkclkIh1yXL9F5H5pD6tfHbquq48575cvPc7jfRQMFkT0vWcYBpaWllAqlSKdaL1eD5UKymma1jOyKJfLfYOFvv+x467r9tzp5Ox/neqjkqOO+FevOo4Dx3EODRbymKrVas/jWFlZUV8kN2hc4Cai7z3Z4c7Pz6vvtXYcp2eaqFAooFqtolwuq6mefD6PhYWFvsECCLZZXFxU23ieh3w+j83NzXjRhyK/Mzv8BUryC5V2d3ejhUM0TUOhUMDS0hKq1ao6JrmYH/+66EFhsCCi7z1N09BoNOB5wdedjo6OYnFxsefrTU3TRK1Ww9LSkrrttNlsotFoHBos8vk8isWi2mZ6ehpDQ0MD6ZQbjQZOnz6NVCqFoaEhzM3NRe56Okw+n0c+n8fi4qK65db3/SMfx+Pip84S0XNFTt0kzekft1yY53mPvT7SjxzlPEpHf1LHFMdgQUREiTgNRUREiRgsiIgoEYMFERElYrAgIqJEDBZERJSIwYKIiBIxWBARUSIGCyIiSsRgQUREiRgsiIgoEYMFERElYrAgIqJEDBZERJSIwYKIiBIxWBARUSIGCyIiSsRgQUREiRgsiIgoEYMFERElGmiw8DwPnuf1pMkvRu/H930Ui0W4rhvPIopwXfex24nv+5E2OT09jVQqFSsV7KtYLPa056NUq1WUy+V4Mr3A4u1N6tdXHpes84kTA5TL5QQA0W63hRBCtNttAUDYth0tGCLLVCqVeBaREEKIRqMhNE0TAAQAoeu6amMPq9FoRNpbpVIRxWIxWmg/HYBoNBrxrEOl02mh63o8mV5gsh2ZpqnSZJ/3qN1voVCI9LNPykBHFpZlAQDq9ToAwHEcAEA2m4Xv+7BtG7quY2FhAbZto1gs7m95oFgsQtd1TE9Po1qtAgiu2EzTRLlcxvz8fHQDeq55nof5+XlomoZarYZKpQLf91U7qFarqr0sLCzANE14nod8Pg/LspDP51UeAHXlv7S0hHq9Dtd10Wq1AATt1jRNTE9PR0Ywnuep9Hw+D9M0VduU7XV+fr7n6pFIchxHtY94vyfbl67rqv0CgGmamJ+fV22vXC7D930sLy8DAGzbViMUub1lWSc36ohHj8dlGIaKouErrWw2q0YZ4b/DIwsZhW3bFpZlqSs7GUk1TROWZYV3R8+5Wq3Wc4Xf6XREu91WbUfXdVEoFNToo91ui3Q63bctydGvZVmi1WqpNtrpdISmaaouXdfVNrKuXC6n0guFQuSqUbZp2d6JhDgYWch2JYQQuq6rtir/D7c72YZknxduj+12W5imqdpjp9OJbC/b8EkYeLCQHXur1VIvViF6h+iapvUEi3Q6LTRNE0IEHYLcPlwnvVjki61Wq8WzegJJeBo03N7CbSw+DSXLyfRSqSSEEKJUKqm6gSC4hOsqFAoqQEiGYZzYC5W+n2T7zeVyQtM0USqVhKZpIpPJRPrJeLuT6bLdyXrCF8/tdrun3YbzBm2g01BAMDQCoKYJcrkcAEDTNLUw4/VZ8JFlgOii+OnTp1W+YRjqb3oxyKnN5eVleJ4H13VhGAZM01TtZWVlBUCw8PeoZF2bm5sAggVuaWJiQrXJcHq4vR7WpomAoF/0fR+Li4uwLEu1Hfl7fX0dwEG703U9kn8YWU62WzkFlbTdI4lHj0GQw6TwVZa8CpQ//UYWrVar70KmjJb0YioWiz1tp9VqqSF4OB37V1WHjSzkdJP8P1xOtttwXY1GQ13taZqm0guFQqS9yt8cWVCYHBG0Q9NHjUYjMiqVf8uffD4vhBACOJiZCY8s5GgiXpf86XfDxiAMCSEEBkze4mgYRmQ04LouHMeBYRjwfR+apsEwDLWwqOs6PM9DvV6HpmkqAsv65KiFXjye56kbJsJXZuF0wzDgui4sy4LruvB9H5Zlwff9njbmOA7M/cVEWQ4IFsx934dpmnBdV21Tr9fh7S8khtu2bK+ynYfrIpJtTbZDx3Fg2zYcx4HneapPkzdbmKYJ0zQBHNy8IdupbLO6rqvt4+1TjrpPwokECyIier4MfM2CiIiePwwWRESUiMGCiIgSMVgQEVEiBgsiIkrEYEFERIleiSc8DvlBV0RE9PQYhjHw9/vwfRZERJSI01BERJSIwYKIiBIxWBARUSIGCyIiSsRgQUREiRgsiIgoEYMFERElYrAgIqJEDBZERJToxIKF4zj86A8ieua5rgvP8+LJFHMiwcJxHCwtLWFlZSXyJFSrVdi2jWq1qtI8z0M+n1ffPVuv11UeEDyRlmXBNE3Mz8/zSaWHJttduVxWab7vo1gsqnYXbpP04nAcB+VyGdVqtW9fFW4zYUn9UrVajeTHL5zDbe+wfQDBd3MfVU+5XFb5R9UzEGLAcrmcMAxDmKYpLMsSuq6LdrsthBCi0WgIy7KEbduqfDqdFvl8XtRqNVGpVISmaaLRaAghhGi320LXdZHP50Wj0RDFYlHoui46nY7anihJo9EQ2WxWmKap0uT//dodvRgKhYLQdV1YliVM0xSapolWqyWE6N9mpHa7LTRNE8ViUTQaDZHP54Wu6yq/0WgIXddFpVJRfV64HrnfWq2mypZKJZUvtVotoWnaofVUKpWeegqFwkEFAzbQYNHpdAQA0W63RaFQEO12W9i2LWq1mipTKBRUsJAnIyyXy4lcLieECE5G/MkyTVNUKpVIGlGScFsKt1OpVCoJy7LU//T8k8FBdsbFYjHSaffrf2R6vK0YhiEa+xcbmUwmUo9sb/IiV9d1VVaIg+ASl81mj6wnvE8hDq9nUE5kGio8VKpUKod+VK7neTAMI5JmGAbW19cBBEO9dDodyZ+amoLrupE0oofhui50XYeu6yrNMAy2qxdQuK8qFArI5/Oh3P4cx8HU1FQkLdwvbW5uRvo1TdMwMTEB13Xh+z48z4NpmirfMAx4ntczxbS+vt63HsdxAATtOJx/WD2DMtBgoWkaisUipqensby8jHq9fuSB98vTdV3N//XL1zQNu7u78WSixxIOHPRiKBQKmJ2dxdLSEhzH6Vl3OIzneX3bi+yvOp1OLOegXzusTwN6+7vD6pEBBzjYNvx3vJ5BGWiwAIInoN1uI51Oo9lsYnp6+qGu2Hzf7/tEhJ0+fTqeRPRYjttR0PMjn8+j0+nANE00m02kUqmeG2z6kR32w9jd3U3s18Id/1GOW27QBh4sgOBk6rqOUqmEdDqNpaWleBEA/U+653nqZBiGgc3NzUi+nEIgelT92t1xLlLo+aNpGqamplAoFFAoFLC8vBwv0kPTtJ6Li/BoI5VK9c3XNA26rvds77ouNE3rCQL96llfXz+yHuDkRskDDRa+72NoaEjNqUmHjQTkHFu4/NLSEjKZjMqv1+vqhHieh/X19UPXQIiOQ76Ywu2uXq/3zEPT8210dLRnJBG/iAiTeZZlYWVlRf3veR6azaZah0in05GgU61WoWmaWl8wDCNyAS1vjwWCfch2Ga+nXq9D0zS1n371hNdCBi6+4v245O2thmGIdDoduXVWiOjdUEIEd6EAEOl0Wmia1nP3gbwtTeYXi8VIPtFxxO9sqdVqqt0ZhtHTTun5VyqVhKZpwjCMntv8hYi2GVlWOqpf6nQ6Qtd11Q9qmha5I7TVaqlt422vVCqp/jFeD4BIPe39txbIejRNO9E2fCLfwe15HhYWFpBOp2HbdmR4JUcJ8upOpnn7w7Tw6r4k7yI4LJ8oiecFi4vh9pPU7uj553kelpaWoGkacrlcT18l24xsK+Erd9kv6fvT7nFyhGAYRs8Uk+/7atoonG+apnrDnvQo9ZyEEwkWwMHawkkePBHR4/L6XMA+LdPT02i1WvHkZ8KJBQsiIno4cgblWcRgQUREiQZ6NxQRET2fGCyIiCgRgwURESVisCAiokQMFkRElIjBgoiIEjFYEBFRIgYLIiJKxGBBRESJGCyIiCgRgwURESVisCAiokQMFkRElIjBgoiIEjFYEBFRIgYLIiJK9HKxWCzGEwehWCz2fK2q53nqe2vHx8dVuuu6+PTTT9X32cY5jgPHcfrm+76P1dVVuK6L4eHhZ/ZbpujZcVg7pBdTtVrt6VuO00aS+qVPP/0UN2/e7Nsv+b6Pjz76CJ7n9c2Xkvq349YzEGLAWq2WSKfTAoDQNE0UCgWVVygUhK7rwrbtSJqmacK2baHrutB1XXQ6HZWfy+WEpmnCsiyh67rI5/Mqr9PpCF3XhWEYKr9UKql8on76tUN68bTb7UhfZdu26nsKhYIwDEOYphnbKpBOpyP9Urifa7fbQtd1YZqmsCxLAIj0S+12W2iaJkzTFKZpCl3XRavVUvnhcg9Tj6ZpfesZlIEHC13XRblcFoVCQTQaDaFpmqhUKiq/UCioF2mn0xEARLvdVvmmaaoT0mg0IsGj0+kITdNEo9EQQghRqVQiL3i5v3CwIeon3A7pxWkIyOYAACAASURBVGQYhigWi6JSqYhqtSoMw4h0+pVKpW+wqNVqkX5JdtqyH8vlcn37JSmdTotyuaz+LxQKffcTb6P96ikWi+r/w+oZlIGuWXieB8/zkM1mAQC6rqPRaMA0zWjBfa7rwjAM6KEhXCaTQbPZBBAM80zTVEMrTdOQyWTgui6AYPiYTqfVtqZp4vTp0yqfiOgwruuqvmpiYgK1Wg22bUcL9eE4DjKZjOqXdF1HOp1GvV4HENSbyWRUedn/yX6p2WxG8m3b7ttnyf1I8f7tuPUMykCDha7r0HUd8/Pz2NzcBICeYBDmeV7PHJuu6/A8T+VPTEz05K+vrwMAdnd3e+oOb09EdBjTNDE3N6c6WNl/JfE8r6ecpmnwfV/lH9avyb4pvL2u6/B9v6ff6lfP6OgoXNdVZQ3DUHmH1TMoAw0WANBoNGAYBhzHwezsLBYWFtRJPI74yTlKp9OJJxERHUutVkMul0Oz2cTc3Bzm5+eP3Vc9TD8FAKdPn44nPZJB1fMoXoknPC5d11EoFCCEgGmaWFhYwOnTp3HYTVfxJyccTcPRWvJ9X402RkdH+0bRh30iiejFo2mamnYaGhpCtVrFwsICKpVKtGCMpmk9/U6/fipM9muyb/J9P/I3EB1tAEH/Fq9HzqYcVc9J9X8DHVn4vo9isRh58JlMRk1JxZmmCc/zIifEcRxMTU0BCIZYcspJkuscAJBOpyNPmud5aDabkaEZEVE/xWJRTUFNTEwgm832BIF+DMNQ66rS+vq6WpswTTOyduB5HjY3N2EYBjRNw8TERCQ/3KeFpdPpnnpk2aPqOalgMdCRhaZpWF5exu7uLnzfR7PZxPLyMgqFQrwogCCYGIaB+fl55HI5OI6D5eVltNttAIBlWVhcXEQ+n4dpmnAcB5ubm7AsC0CwoDM7OwtN06DrOpaXl2Hbdk+EJiKKazabaDabSKfT8H0fy8vLasE7rl6vo9lsolQqwbbtnn4JOFjItm0bc3NzagSwuLgI27ZVJ57P5zE/P49SqQTf97G4uKj6yHq9jnK5DMdxYFnWseqR24brORHx26MeV7vdFtlsVt0fHL5FTIjgdrTwvcKdTkfkcjlhmqawbVvdFivJ+kzTFLlcLnKbrRDB7WSWZQnLskSxWORts3Qs8XZIL55OpyOy2awwDEMYhtHTV9VqNZHL5YQQQXuxLEvlJfVLtVrtyH5J3pZrWZaohN5akM1mI/8/aj0nYUgIIeIBZBDK5TIsy+JVPhE90+r1OjRNUyODpymVSqHRaDyT/eaJBQsiIno41WpVLbo/axgsiIgo0UDvhiIioucTgwURESVisCAiokQMFkRElIjBgoiIEg30Hdzlcrnns0yIiOjJMgxDfdLFoPDWWSIiSsRpKCIiSsRgQUREiRgsiIgoEYMFERElYrAgIqJEDBZERJSIwYKIiBIxWBARUSIGCyIiSsRgQUTPPdd1Ua/X48kKP6Yo2UCDhe/7KBaLKBaL8azngu/7qFarqFar8SwiekaVy2UUi0UsLi6iWq3C8zyV53keTNPE6OgohoaGYJpmJD9Mlh0aGupbNp4/PT19ZH4qlYLruio/rl6vQ9d1VX5+fj4S1FzXhWEYKt+yrEOPfSDEALXbbQFADLjaZ8bz/viInjeGYajXrPzRdV10Oh0hhBC6rgsAwjAM9bdpmrFaAjJf0zRVV7hsv3xd11V+JpNR6bKMpmnqWMLCfU24Ptu2VX6//R127IMw0F4v3plWKhWRTqdFoVAQhUJBGIYh0um0aLVakW2y2ayYmJgQtm2rbfL5vBBCiFKpJNLptKhUKqJQKIhcLieEEKLVaolMJiMmJiZUvtTpdEQulxMTExPCMAxRKBQieYVCIbJdOp0W6XRalZH7NAxD2LYt2u22ECLa8NLptKjVakIIIRqNxqHHQkRPR6PRUK/XSqUistmsCgq1Wk20Wi3V2QohRK1WE0C0g5dkXTLQtNtt1Um3Wi1Vl67rot1ui06no/IbjUakb5T9iWma6tjiSqWSACAsyxJCBP2dPNZOpyMqlcqhx9Mv+AzCiQaLQqGgHqBMDz9gIQ6icfxHRshsNhupQ3be8v/w9qVSSQhxEMHDVwsyYMj6+v0IEQQ4uT/5ZMrGEy9fqVQiDbLfsRDR0yE7WAAim81GLhr7ka99wzDiWaovk523EAf9TKVSUduGr+xlX1MqlVQ/Ec7P5XICgLoADpN1h/uRiYkJAQTBSW4bfkzyYlZexA7aQNcsDqNpGtrtNtrtNjRNg+/7qNfrqNfr8DwPuq6j1Wqh3W7DNM345kqpVEI2m0WxWITv+8jn82i322i1WgCAxcVF+L6v5gFzuRxarRYKhQI0TYPneVheXgYQzGMKIZDP51X9QDCvCAC2baNWq6l9+r6PdrutygkhYNu2Wp8pl8tot9toNBoAgmMhoqfHMAz1+l5eXsbi4iJM0+y70O15nnrN5nK5WO4BTdN6/g6vE+i63vO37/t91xLk9ru7u7GcgwX38P4k3/f7LsifPn0awMkt1j+RYGEYBnRdh67ryGQyAIITLDt1wzBUmWw2G95UyeVyyOfzMEOLSuVyWS0kAQcnUTaQ+fl5pFIpbG5uRhZ/NE1TDSLeMCzLgq7rKJfLGB0dRb1eh2EYfZ804KCh5PN5DA0NYXZ2FsDJPWFEdHylUgmNRkN9EVCz2cTc3Bwcx1FlPM/D3NwcPM+DbduwbVvlSf1e//I1Hg4Q4dd9+G+5fb9+QXbyYeFA00+/45HCxzNIA/2mvMMc9sD6ncB+EThObpfL5WBZViTS6roOy7JgGAY8z8PKyoq6A6JUKgE4iPS6rvc8GZqmodFowHEcOI6D5eVlNJtNdDqdSDlpdHQUm5ubKBaLSKfTh0Z9InqyPM9TQSGXy2FqagorKytwXReO46gLz9nZWRUoKpVKtJJ9hmEACO5QqlQq8H0f6+vrAII+R/ZJjuOo1//KyoraVm7veZ7qe+QIR+aFGYaB5eVlrKysIJ/Pw/M8bG5uqjx5od1sNgEE9cq/TypYPJE1C7mCL8TBPF6hUIiUT6fTkfWE+JpFeG4uvLhT2F84l9uEF5ZKpZKa25PzkPr+uoKu6yKbzUbWU8L7syxL1Go1Vb7VaolOp6PKZjIZ0Wg01GOUxyLLhx8zET154b4gnU4L0zTV67NSqUTyNU0T2WxW/Qhx0Fc0Gg3R6XTU/5qmRdZMpaR8uQYaz2/vL3hns1mRTqfVgrXsa8LlZb8SP3b5d3hNZNCearAQQohisai2AYJOPfyg4+Wl+HamaaqTHu7k5cmUiz6tViuSZ1lW5Jjb7YNb0uRPsViUuxX5fF6lV/bvYginxY+FiJ6eSqXS83qWd1qG+6v4T7gzPqzvMAwj8jqP9x26rvfc+Sn7NyDolxqNhhAi6PyBaGcfP/Z4vxLv5+L5gzbw7+D29qeR9P0pHt/3oWlaZMpJpsn/5TaGYaBer2N+fh6maaLRaPStQ5JDOk3T+g7lHMeBpmnQQ8PEeJ6crgKiwzfXdeH7PnQ9WGsJ63dM8lj6lSeip6tcLsN1XZTL5Z6+4DCe58H3/Z6+pV9/ESb7h4fJdxwHs7OzqFQqPWsmso877LiT8gdl4MHiYfi+j9HRUQDBQpSu61hYWICXMH9IRPQw+nXQz5J6vY7l5WXUarV41jPjqQYLILjFNP7xILquo9FoPLNPLBHRi+apBwsgGII5joPNzU1MTU3Btu0TH1IREdHxPRPBgoiInm1P5E15RET0/cZgQUREiRgsiIgo0UA/7kO+N4GIiJ6ew9579jgGOrJgoCAievpO4m5S3g1FRESJBjqyICKi5xODBRERJWKwICKiRAwWRESUiMGCiIgSMVgQEVEiBgsiIkrEYEFERIkYLIjohcRPnHg4fAc3Eb2QLMtCtVrt+WgM3/dRrVbV929blhXJl45bDgg+N0/TtJ7v3Zafp2fbds83g3qeB8dxImlA8E2ipmmiXq/3BDyZdxIGPrLwfR9DQ0Oo1+vxLACAYRiYm5uLJz+Ser1+5BNERBRXLpeRSqXQbDaRSqWwsLCg8jzPw/T0NNbX1wEACwsLkXwpXq5eryOVSvV03kCwv+npaVSrVZVWr9cxNzcHz/PgeR5SqVTfwNBsNiM/S0tLqm8tl8tYWVmJ5HueF61gkMSANRoNAUDkcrl4lqhUKgKAKBQKkfRWqyUajYZot9uR9Ha7LTqdjuh0Oj35nU5H5HI5YZqmKhfertFoiEajodKOIvcv9xWuKyycJ7fpR+5fHm/8cXU6ncj2/fYZPyfhOuTfrVarZzsiOlyn0xEARLvdFtlsVrTbbaFpmqjVakKIoI8yTbOnfPx1VigUhGVZkTTDMESlUomktdttYRiGsG070u+l0+lI2VKpFNnvYXRdV/1GOp0+tA86CQMPFqVSSei6LnRdj6S3221hmqbQNE09wFarJXRdF6ZpCsuyBABRKpXUNoZhCNM0++aXSiWhaZraXnaclmUJTdOEZVkqL/5ES3L/cj+6rotcLtfTCKR0Oi1s246U13U90pHncjmhaZrKLxQKqnEKETRGmS/LmKapGlK73RbpdFoYhqEeQy6XE4ZhCCGCYKxpmshms0LX9UMfGxH1arfbqvPPZrNCiN6LwFarFdpC9A0WpVJJZDKZSFq4Iw+nVSoVUSgUIsEiXqc8rqM0Gg3VDwhxECxqtZooFAo9+x60o4/uEWQyGVEoFISmaZFONJvNinK5LACIVqsl2u220HVdVKtVVabRCEYl8skDIIrFosqXgUgyDCNygrLZrLBtW/3f6XSEYRiRACQdtf/wkxqmaZowDCPyJJumqfYpA008X9M0IUTQEDVNizTGUqkkAKgrG13XI4+5vX/lIwOYPAcn3TCInlfhi9B4EIirVCqRPkfqdDoik8kI27ZFqVQS6XRa5PP5SJlCoaD6hnCwOCwwhC8q+8lkMpHRSDqdFpqmiVwuJwqFgro4PSm9R/yYDMMQtVpNZLNZ1Uk3Gg2h67rqLIUIOtZwxy5NTEyIRiOYQpJlpUYosspgIp9s+QTET/Zh+zksfWJiQnXcYXJ/8frlsPWw/RcKBWGaphAieHLjgUtu12q1RK1W69sw0+m0agSHHTcRHZ8MApqmCdu2+waN9v4FZb8LM5knO+r4SF++luX/jxss5P7Ccrlc5GK3vX9h2e+xDMLAF7hd14Wu6zAMA81mEwAwPz+PRqMBz/PUtze5roupqanwpvB9H5ubm9A0LVJWknXLvzVNU3cyuK4L0zRVvuR5HiYmJiJpQP/9A8Dm5mZPHcDBvuN5Mv2wfM/z1H7W19d7HpPv++pbrRzHgdnnTobd3d3IectkMrESRPQwbNtGOp1Gq9WC67ool8uRfM/zMDs7C9u2+74mi8UistksyuUyisUiqtUqpqamUC6X4fs+FhYWkM1mUa/XUa1Wsb6+jvX1dTiOo/qI8GK4/Dvef0jFYrHnOMrlMrLZrPpf13WcPn267yL7IAw0WMgO3Ni/jcxxHBSLRdj7t4U5jqM6Tk3Teh5UuVyGYRgwDKNvZx7ueF3XjXS8vu/33AngeR5WVlZg23YkHQj2Hy9fLBYP/TpCeYtb+Jhl/fIJ65ffbDYjDSC+T/mYpXh+tVqNBMn19fVDGxQRHU3ephrunNPpdOR167ouZmdnkc/nUSgUVHqY7/s9r8Nwn2aaJjY3N9VdSq7rwvMOboU1TROu66pt6/V6334HCPqE5eXlnmORF5iS53nqYvtExIcaj6NWq6kpFyGCKR09NBQLT8PIaaZKpSJqtZrI5XJC1w8Wi9OxuwVkmpwiKpVK6u4Ducah67qwbVs0Gg01tx+e/w+r7C80l0oltX9jfy6zH3l8lmWJRqOhhrGyfrl/mV8qBXc3AFDDWDmvKB9zen8hW9451thfM8nlcqLRaKgpLPk0HTZ8JaLjk69T0zRVPyD7Hfl/NpsVlUpF/bTbbVGr1dSidnjtsN0O7n7UYuuRYdlsVk1DCXEwDSanp2RfKMTBFFa4bL+pZ3kMpVJJVCoVYRhGz7rJIL1cLBaLkejxGG7evInJyUkVITVNg2VZ6v/NzU28//77GB8fh67rGB8fx8rKCtbX15FKpVCpVDA+Pg4giO6yrOS6LizLgqZpmJychOd5uHXrFmZmZjA+Pg7LsuC6Lj7++GMMDw/jpz/9ad9RBRBE5fHxcVy/fh2bm5v48Y9/jJmZGbz11luYmZmJF8cvfvELFItF6LqOpaUl7O7uolAoqPqHh4dhWRZWV1fRbDYxOjqKUqmE7e1t2LaN4eFhmKYJTdOwvLyM7e1t5PN53Lx5E4ZhYGZmBroevKHm+vXrWFtbw+TkJP7mb/4Gr732Gt5//334fvAelvfffz96cER0bJZlodvt4vr16xgaGsLf/d3fqT7K8zzouq5GCfJH3x9FvPbaa5iZmcHMzAw0TcPS0hKWlpawubmJUqnUt+8ADkYik5OTAIL+R9d13Lx5E91uF8ViUb1n7Be/+AVs21bHJGcvwn0hANVnuK6LW7du4dKlS/jpT38aKTNIfAf3MY2OjqLRaBw6VEzieZ4KdpLv+5ienkaj0VCNkYiejGq1eujF5NMk+4QTm056RAwWx+C6Lqanp/E4p8r3fTXayOfz8DwPCwsL0HUdpVIpXpyIXkC+78NxnGfykykGusD9vPJ9v+dOhIelaRpqtRqWl5cxNDSE2dlZmKbJQEFEipy6fxZxZEFERIk4siAiokQMFkRElIjBgoiIEjFYEBFRIgYLIiJKxGBBRESJGCyIiCjRK/GExyE/npeIiJ4eY/+TvweJb8ojIqJEnIYiIqJEDBZERJSIwYKIiBIxWBARUSIGCyIiSsRgQUREiRgsiIgoEYMFERElYrAgIqJEz22wuL+9jS8++AA7V6/Gs4iIjnRndRV3P/88nqw82NvDg729ePJDub+zE096pg30s6G+29vD7/t0zq+/+y7ePH8+ntzj9pUr+HZnB3/x4Yd47d130fnkEzzY28Ob58/j1NhYvPiR7m5s4M7aGgDgTy9fxksjI7ESRERRD/b28IeVFeytreGlkRF8u7MT6bvub29ja2kJ9zY2AACnxsbwoytX8MbMjCojyXoA4K18Hq/s92F/WFnBHz76SAUb7eJFjF25oraTOp98gs4nn8STMXrxIkYvXsTtPtuMnD2LM7lcPHkgBhosHuzt4asbN+LJGAKOFSziOp98gm93dvD62bMPHSxO7+9vCGCgIKJE97e38duf/xzfhq74721sYPfGDfzFhx8CAL748EN8027j1VQKp86cwZ3VVXzx4Yf4d9euRfqZ+9vb+Nf/+l/V/9Ldzz9X6afGxnB/Zwf+J5/g5ZER/PDy5VjpoP+SvtsfzcggI48z3Dd+95ijnaMMNFiEvR0aYciTePfzz/HltWu4vx8AXk2lcGd1FafPn+8JJr+/elWdjJ2rVzFy7hz+9PJldG/fxu+vXlV1vPKjH+HexgZeO3sWfxo62d+FAteb58/jqxs3sHvjBl59+2289Prr+Oqzz3BqbAxjV67g1bffBnBw1SDrfu3dd/HVjRsYfvtt/OjKFfz+6lV0b9/Gm+fP44/tNl4ZG8PoxYuRx3VqbCzyeO5vb+PLjz7C3c8/x8sjI8Hj+I//EUAQXL+8dg1fr67i1NgYfnj5Mr68dg0A8BcffqiO+bWzZ/HS66/jvued2FUD0Yvuztoavt1/Db8xM4Pv9vZw7/PP8e3ODr7d2cEr+507AIzn83g1lcJmLodv2m18027jtXffBRC8rn/7858DCPq+8HRVuE8az+Vw9/PP8c8//zm+unGjJ1jIEYR0+8oVPNjbi4xiTo2NIdVnNucknFiwkEMu6f72Nv55/wQCwUmTJ/L1s2dDJQPd27fV39/cvo3hVErVIU9+eBTzJ2fOqL+B4AmTQ0UgmB+8t7GBexsbar/f7uzgtz//Od6+ehXf3bkTuar46sYNVf/QUBDfu7dv497GBr5pt/Fgbw8/vHxZPdlA8MTJfXy3t4fRixcPrkTefhvf3bmDP3z0EV5+4w2MXryI333wgTrGb3d2IucHODhmub9+54mIBuu7vT10b9/G6f0OPWzk3Dl8/dln+Pp//A90b9/GN+02To2N4dVUSpX511//Gt/u7OCHly9j98aNSLD4pt0GcDDzoS5Ud3bwYG/v0FmQu/tB69W3347s67u9Pfz2Zz/DvY0NvJpKYTyXU3UO2oktcP/PixfxPy9exPbSEgCg85vfAAg61H937RpSv/rVoScGCK6sZcD5iw8/xJlcDl999hke7O2paJr61a8iJ+44To2N4e39bWXQuLuxgbsbG+qqIqnul0dG8KMrVzBy7pwaCfzoyhWkrl7Fn3/wAQCodHkl8qO//mv82c9+hh9evoxTY2P4Zj/wAMHj+18++QRa6CoiTAam8FUGEQ3Wm+fP45WxMXWhuXP1Kr744IPIQvToxYt4aWQEf/joI9W3jczMqL5s98YN+L/5jZopiItPE70c6gPDQSXO31+7GP2rv4qkP9jbwzftNl4/exbftNv4behietBObGQhI6ccmn2zP1LQ9k/2SyMjeGNmRp2E45BPWnjB+42ZGRWtj+P1s2fV/l9NpXBvYwMP7txRHXd4fUQLBbswLTQ8lMf0+6tXI4v78gkbvXgRX167hn/++c/VY37z/Hl1Pk6NjalzNHrxYt/z8cbMTN+GR0SD8/LICN6+ehX3Njbwr7/+Ne5tBDfJ3N3YwNtXr0IgWLN4sLeHM7kc/uTMGfxLuQz/k0/wxrlzODU2pi4S/83+rIPsB7q3b+P1UGCIBw2gdzZGur+9jTtrazg1NhaZrpd9guwP5ZTY/Z2dQy90H8eJBYv43PqpM2fUlIr07fZ2qESy8NqHPFH3H7KOw8i6/xiq794ht86FrwZeHhnBtwieuNfPnsV3d+5EGsKb58/jtXffxf2dHXy9P7X1YG8P2v4Vgly0emlk5NBb9cL7I6KTcX97G3c3NvDyyAheP3sWb8zM4Mtr1/Bgbw93Vlfx2tmzavZBXgy/fvYsvrpxI7jYfPddNY0dv8j84sMP8fbVq6r83c8/xxvnzmF3f6r7qKkjGYBeC01Dh/uYeP/wvRtZxMnF4q9u3MCD/Q5VXs0n2bl6FaN/9Vd449w5+J98gnsbG/jigw8eqo4k4bp/+7Of4aWREXXb21HkyEaub+zeuKFut3tjZgabuRwe7O3h31y+jD9JpXB3YwMP9vaChfaRYBpsM5fDa2fP4s7qaqx2InpS7u/sqE7+1NiYmpICgo5azkjc39nB1tKSukEHCDr7flNPsqOX01dvvvcevrpxA/4nn+DO6qoKLm++9x6A4P0dO1ev4s3z5/Gnly/j/vY2vvrsMwAHIwkgCBCyr/nqxg28MjbWd/1kkE5szSLu9Pnzak7+ztoavmm3e+6Aivvh5eD9EXJ+//WzZ9UJk3UM6sSE6763ESxSv3HuXKxUrx9evgzt4kXc39nBl9eu4dud4E6qsStX1NrGK2Nj+MO1a/B/8xu8NDKCP/3rv8bLIyP48w8+UHdYfHXjxrH2R0QnI9wHyJtLXtp/DZ8aG8PLIyMYz+XwytgYvrpxA7+/elWtJ75x7hxOnTmDH16+HPmRZLCQ+3hlbEwFivBdT3Lt9Af7dzzd3b8YfmNmRk2PS38R6j/ksZ7J5dQsyaAN/Du45Qk4av7twd276oHLKZiXRoI3wADBlFD4AX+7sxNJu7+9jW9//3sVKMJ1hIWP5UFoukeWC6cBwdDuuzt3IO7exaupFHb3G8TrZ8/izz/4oG8d0oO9YKFJXpHEySfz1NhYz7b3NjbUdknHTEQnb6tcxqkzZ1QnHyZf6wDwairVkx92VH8Y79cA4Lc/+xke3L2LiXIZQLSPOmw/sky/fQzSwIPF99U3t29jM5/HSyMjGLtyBS+NjGDnavBej/FcLnEURETPj/vb23j5jTcO7aBPyhcffKCmsJ81DBYhX167puYYpVNjY5hYWnrijYaI6FnCYBFzb2ND3ZV0aix4JycDBRG96BgsiIgo0RO7G4qIiL6/GCyIiCgRgwURESVisCAiokQMFkRElIjBgoiIEjFYEBFRIgYLIiJKxGBBRESJGCyIiCgRgwURESVisCAiokQMFkRElIjBgoiIEjFYEBFRIgYLIiJKxGBBRESJGCyIiCgRgwURESVisCAiokQMFkRElIjBgoiIEjFYEBFRIgYLIiJKxGBBRESJGCyIiCgRgwURESVisCAiokQMFkRElIjBgoiIEjFYEBFRIgYLIiJKxGBBRESJGCyIiCgRgwURESVisCAiokQMFkRElIjBgoiIEjFYEBFRIgYLIiJKxGBBRESJGCyIiCgRgwURESVisCAiokQMFkRElIjBgoiIEjFYEBFRIgYLIiJKxGBBRESJGCyIiCgRgwURESVisCAiokQMFkRElIjBgoiIEjFYEBFRIgYLIiJKxGBBRESJGCyIiCgRgwURESVisCAiokQMFkRElIjBgoiIEjFYEBFRIgYLIiJKxGBBRESJGCyIiCgRgwURESVisCAiokQMFkRElIjBgoiIEjFYEBFRIgYLIiJKxGBBRESJGCyIiCgRgwURESVisCAiokQMFkRElIjBgoiIEjFYEBFRIgYLIiJKxGBBRESJGCyIiCgRgwURESVisCAiokQMFkRElIjBgoiIEjFYEBFRIgYLIiJKxGBBRESJGCyIiCgRgwURESVisCAiokQMFkRElIjBgoiIEjFYEBFRIgYLIiJKxGBBRESJGCyIiCgRgwURESVisCAiokQMFkRElIjBgoiIEjFYEBFRIgYLIiJKxGBBRESJGCyIiCgRgwURESVisCAiokQMFkRElIjBgoiIEjFYEBFRIgYLIiJKxGBBRESJGCyIiCgRgwURESVisCAiokQMFkRElIjBgoiIEjFYEBFRIgYLIiJKxGBBGIgcDwAAHo5JREFURESJGCyIiCgRgwURESVisCAiokQMFkRElIjBgoiIEjFYEBFRIgYLIiJKxGBBRESJGCyIiCgRgwURESVisCAiokQMFkRElIjBgoiIEjFYEBFRIgYLIiJKxGBBRESJGCyIiCgRgwURESVisCAiokQMFkRElIjBgoiIEjFYEBFRIgYLIiJKxGBBRESJGCyIiCgRgwURESVisCAiokQMFkRElIjBgoiIEjFYEBFRIgYLIiJKxGBBRESJGCyIiCgRgwURESVisCAiokQMFkRElIjBgoiIEjFYEBFRIgYLIiJKxGBBRESJGCyIiCgRgwURESVisCAiokQMFkRElIjBgoiIEjFYEBFRIgYLIiJKxGBBRESJGCyIiCgRgwURESVisCAiokSvxBOetgd7e+jevo1v2m18024DAO5vb8dK0Yvm5ZERnDpzBq+MjeHVVAqvnz0bL/Ls+84H9hzgjx7wjRv8/50fL0Uvmj/RgVM6MGwEfw8bsQLPhiEhhIgnPmkP9vawe+MG7qyu4t7GRjybqMdLIyN4/d138cbMDN48fz6e/ey47wGdKvDVCtB147lEvU7pwIgJjGaD38+Ipxos7m9v48tr13BnbQ0P9vbi2UTHcmpsDD947z2c/vf/HqfGxuLZT8eeA+wUgb1mPIfo+E7pwFgBGLXjOU/cUwkWD/b28K+//jX83/wmnkX0yE6NjUG7eBGjFy/Gs56cP3rA72wGCRqsZyBoPPFgcffzz7G1tIRvd3biWUQDcWpsDH/+4YdPfpTxZRnYXgQecB2CTohmB0HjT/R4zol7osHiX3/9a/zho4/iyUQD99LICMZzObwxMxPPGrzvfOBf8oC/HM8hGrxTOpBqPPGA8cSCxc6vfsVpJ3rifnTlyslOS33nA+1ZLl7Tk/WyFgSMJ3jn1BN5nwUDBT0tv796FZ1PPoknDwYDBT0tT6HtnXiw4EI2PW2/v3oVdz//PJ78+P55/om+WIkiZMD4oxfPOREnGizurK5yjYKeCV98+CHuD/Kmip0i8HU9nvpcyv8XQL8Q/Phfx3PpqZIB4wm8ufPEgsX97W3sXL0aTyZ6Kh7s7WGrXI4nP5o/esDOYjz1ueR/DSz9I7D5RfBT7RMf/a8B92bw2/8a8L4IfmSe98VBkAkHm3jZOO+LoF75d7xcv/3K+mV5mfdcB7n73hNpjycWLL68do23x9Iz5d7GxmDWL9qz8ZTnVv1G8Fv/s+D3SuMgDwg669QFYPo/AKP/GzD/t8H/s/NBfvm/Bf9bOcCcB+Zy0fTwj/e7IM/7XVBW1jv9H4Dp/z343/mn6PYyT+534b8E+fbPg/8X/z74Xf5vQfpz68ty8EbQE3QiweL+9ja++uyzeDLRU/fltWuP92kBnWpwJTcg7k2g/llwxe7807N3BVxdCX4X/hOg/SA4Rnm1738ddP7+10Ge9V7wWPpp/hPQ/P+Cv92bwML/Hfyd+z+AbCYYBcz+n0Fa8R+CstoPADvTOzKQ2/tfA+ZfBoHssP2W//HZO6cn5oRHFyfyQYJfXrsWTyJ6JjzY20Pnk0/ww8uX41nHM4AXpP91cKW7dEhHlv5LwL4I2FY858nyfnfQwVvvBZ300j8C9QZgTAaBw/sC0P8t0Pp/g869+PfA4j9E6wGCMrUyoL15cJVvvRf8AMDyysG008p+x1/6z0Gw8L4IRg/yXMkAZr0H1JaCv+2/DeqIs94L6tF+EM95Du05wc8JfZ7UwEcWHFXQs+6Rp6IGMKqQ0yeL/9A/UADBVfj8/xVMrRxW5kmQUz7G5MF0FAAs7Xf2/lfBb+0HB52x+ZfB7zjzfw3q0f/s4DHVPwse4/zfBukyT+bLuvQ/A06HOnuZP7E/NQYcTJPFZd4L8l6IYAEM5GLmMAMPFp1n8DZZ+ZlBRzlOmX5eGhl58h8rcUJ+dOUKxnM5jOf2J5afUw/29h7tVlq/Gk95KMW/P5g+OY7qSvSK+kmTIwT3ZhC8lv4x+N//Oggk+r8N/vd+d7DeIAPMUWTHbr0HtK8Djf8nmIrKZoIAITt2GZScfwoW1yXjneD3ymfBfv2v+48qXkh7zondGTXwaag7q6vxpKcq/DlBL4+M9J0iO06ZuNGLF/Hm+fN4NZVSafc2NrD73//793Zk9YOZGbyyH/i2lvbH98+pvbW1h/tOjO/8/7+9+4lt47rzAP4lqaFEjkRTZkM5sbwrKrDV7UqJN41h7SGpI/XQvUjeW5TtIsrCPcQXq5ctEBeIi20CdC+xTj3YaFxsNw6wC8RWsEgvcpy4aOSN7diVklrOQlRhWjWZyqL+DClx+GcPj28480iKpDjDP9bvAxixH4czQ0aa77y/U9XigBcuFW6eKWVxifULfPwr8RVr3b7Lju3tAN79ee4CfuEyuzBfugKc/QmrLdy+CwR+wLYpJ9jGj7PguXAZuD2fu+CPj7LX3zzJOqrPZrcR9zl+nH2Xi0uVHXfXiF4AfBNiadVMrVmo4XBDjYCyy7JhQTnf2FheW7W46JxvbKxkDePA22/jiRMnDEEBAK7+fuybmMg7Bmk8q9O6dpVyKFfFkorsJCi4q58XHrJqpUtXWA1gfJTVAI4dYX/GR1n5JzfYBfqDSVYj6HmKBcc7/2rcj7cjvxmp5yngi/9m+42uZfs6TrK+BQCY+CFw5nW2P28HCyV9k5O3g4Xnsedzx534ofE4Pft3WfOTXhU3NdsxdW2ojZkZLL39tlhcV3tffhnfeuUVQ9nyxYtYvngxLygAFnj3T58uGnr6tYb4Q5vSigJXf7/hTvX+G28YHuTkGR6Gu78fUleXVvvgzT2bwSCiU1OwyzL8J04AYKvzbgWD8AwPwyHLSGU7ZsXzsssyOkdG0NrbC4csY3NhYcfb9Z4/r9Us7ukCszUQgGd4GG29vdr73AMDcPf3AwAi588jrSjwjY1p3+XDyUntMzdqLUX/eUv68wSwvLPPceESa8bhXh0t3WwyPsou2PyO+XAfu8A2kuh6rrN64p/Zhfnq52xU0+Fvs07vnbhwidUajg+x/QBsWG50PRsSRfpFSJbDC/zNilhaNVOboWIN+JQ7PoNcHxi+sTHYZRntg4MVBYXk9xsWpVs8dcqwrT5IfGNjCJ0+DQDYd+qU4Wlurv5+diHNhkvL7CyiU1NwyLK2XWtvb17NxTM8jD/pjikfPYonJyZgl2VtG77vpbfe0sLK1d+P/adP523XOTKCP589i/Vtms3ko0exP/s5gNz+k+EwWnt7AQB/yQ5HdQ8MwJUNEDUS0WpYjRoWm8Eg2ssNiyqW9eCjd7wd7E6c36W/9lPjdtyZk8CbrwOn7rILb3SdNdfcvpu7eDYCbwebd3H7Lgu/7x3JjWQ69rxx20osLrGa2K8vA8/2sc8fXWe1BQqKMqSibCCG1CO+UhVTm6G2FhbEoobw6P338Zf33jOUdY6MVBQUALuAc6vT03nbfnP+PO6NjODeyIgWFJ7hYUNQbC0sQI1ESraXtwYCSCsKNmZmtGUqHNlltwEWXP4f/UgLgK2FBa3T1iHLeCobDpLfj326QFmdnsaarglGvw8RPwbHO4Ydsmz4Lgpphqa4ip7tXsX6O3fm2X979ucu9uOjuWYXPR4UANv21Ww7PsACo9F8MMk+1+ISu7hH19kF/c2T4pblO3OSNSstLrEw+uQGO8YHZ8UtSVFV/LwWY2rNopEVqmFw5QQFwC7g3FYwqHuluD26oNCvvltq6Ww1HMafJiaQVhRIfj/+enISdt1F2jUwoIXd6vQ0wtm7965Tp7Ty1kAAUleX9m/98beCQTxx4oRWm4kWGE6qP0ax8ylmc2EB0Q8/rOyCXGOl/n8bqH8SS8rC74oBdgf+0r+wphRvB7sgrq6xSWiAMSgANnqKj0ACciOOGknPU0Dwt+yz8bv/YsNYK/HOT1jg3L7LvqtGqlE1hSqHeBdialiYulCbBdavXMHe0dG8i9zGzExZF46dzPzlAZNSFMPqu9GpqW3DYisY1I6nRiJIKwrssgxH9tz1waWvKfDQ4PQP//nWK69g76juVjVLbO7i9DWv5fffN5xPbG4O7UePaq+LwpOTZQdqvezk/2e1xMDQ7sBt+UFRTad4rVlxMfd2ULNTIzE1LBoZ78wWgwIAOkdHkY7FSg6Z3dQ1s7UfPZp3Ny75/VrzkhoOV9WHkypxIeOhIf5dpH9NDYcN+01k7/oTFlzUGz0oasXbkT+08/ZdNjT03Z+zf4tNNsWCwooLMiHl2hVhwYNCf6fM79Q53sa+XWDE5+agRiJaKPjGxrTtJb8fT77xBtqyzUSr09OIzc1hc2EB7oEBOGQZHUNDWmeyvh9jJ/QXY1d/PzauXwfAPgcPrL+8955hu43r17XzbR8c1IJEKTJBTV/b8gwNaTUYye/ftlZBjA73AVezy2ZwvNObBwZXLCgACgtSX6aGheT3l9WcU0uFgoL3UXiGhvJGSQHbB8Y3587hqWzntW9sDJ0jI0grimEIphoOa/uIz81pF+8nJybg/f73Wd9Dkaafcq1OT2ujujpHR9H29NMAWHAA7BzUSARbwaC2nW9sDC1+P9KKYhj+qxSZsb0+M4MnTpyAXZbhHhhA4Nw5JL/5pupzbxRlD5sF2HDEHc6MffV4flgA+YEx8QtjH4UeXyqDkLI4vGJJ1UwdDSV1dYlFdWWXjZPyAGNndqFRUqUm5W1cv67NKwDYMcSgWHr7bS00ly9eNCwt4ervR2sgYGjS2om0oiBy7pz2b1d/vxYUaUVB5Px5JLN9HZFz57Tz3TM8bOgrCZ87VzTgxWNIXV1w9ffDLssNO/KtEvqfi5Lse8SSso2Pso7fQi5cZk1S4z8tHhQAW521WVy4VPtJhERg8rBZwOSaRaPdcaYVBcvvvYd9E2zqe6FRT+IoKTUcLrlkSXRqCsrMDFwDA2g/ehR2WYYaiSARDGqT9PRCp0+zIbRDQ0grijZS6InsBDx+PimFTfIDgLjQNLT+2Wewt7cbytauXEF8bg7ekRHtu98KBvMm25W73XbH4LUSNRJBdGoKrb29hnAC2EAB3g/SDCq6uZGPAdFfi6Vle/ffcktwi85uExIACxu+FEYjOvsfbCXa8RFWA+ITEA9/m5rO6saCsDB1BndsdlabX9BIPEND8I2N5QWF3t6XX8ae4eFttyGPl0MFhgsXtXwW+POPxdKKnP1N7uE85Tr87dzIqUbFlwd/83U2k3viF8DqOhv+Sk1ndeA6DDz9hVhaNXNrFr29sMty3p11va1duVJycb9H77+P6IcfNty5E2uUmhSZx31MLKkYX7/ox/9e3pyJiR/mHjrUSBYf5Bb4E4e28rWg+N/5w534/ItLV1i52DR39fPcA4wO97HFAgHj+489D1yYAs5khxgXe8+u5/6eWGIKU8PCke241a+J1EwoKHYPz9CQWLQ91+GqOrk5vt7R1c9ZH8Xtu8bXvR1sG75cd6NZfMCa0/jzsCd/kx9mfDTX+HH2+X72y/zhw7++zNa68nYUHgH2yQ3W8c/f37Mf+DFfdPD1wu+Z/M/Gr4XVhMea1DS1gxtojmUeCHFVWrMAAF/hUWOV4qu5fvFfwMrv2QXu41+xZzus/J5dJBsxKADgzC9ZUPTsZ0t9vPMTYwgUw1eo5RfzxaXsgoEPcmHw8a9yT9y7cNn4bIzFB2wb/sQ+HhRnTrL39exn5bu+Y93ZY9mT8kytWQCset+ITVGEcJ7h4cpGQnG+CdOfRNZss5TvZGtCp/4p90jUy9OFhwbrHTuS2350KLeOFA+EqG7ZE+7q57kmrZ79uVVs+Uq3x47kZr2PvsRqOZ/cYP0mu5ZJNzSFmB4WAFukb7u5CoTU045rvw4v0PkqsLLzUVGPIzNGyHg9rE8C0P33SK5vp1RH+a5vegJYrcKiJijAorDwjowUXJWVkHrbca2C858B1i5X3XfRrL53hK1+y+eELC6xu/mdOj7MhtpG11ggeD1sNBWQq4mI+HDcq5+zvgtvR+58Rou8Z1fwjlsyZJYzvc8CYB3d/CE+hDQKPou9KlKPpVX9RnfmJGsSWlxio7omf2Mc1VQp3mEdXWeh8Y+n2PO2XztefI7GsSO5EVE/+2XuueaNPh/FUs4ewP+mWGoqU+dZiEo9WIeQWiq1LHzZUlEg+FJVD0RqZotL7K5+8UGuv2XxQW4SHu9kPj6c7Zf4X1Zj4DUF/l79pD3e4Q2wfWr7Xcp/P1fsPbtSX9DSWgVgcVikFMXwZDdC6qVzZESbMW8KdRH4v7/btc1RpIH4z1heqwAsaobiHLKMA2+9VdmCbYSYrDUQqL75SST1AH/1gVhKSG35JmoSFIDFYQGw9XcoMEi9tAYC2iNmTScfA/a/K5YSUhveceDJd8RSy1jaDKVXaBE/QqzkHhjAU2+8YU1Q6K1dAh68Rk1SpHZ8EzUNCqCGYQGwwHg4Odm0y4GQ5mF6H0Up6iLr9E4siq8QYh6Hl/VR1GFEXk3Dglu+eBErU1M0y5uYTvL7sW9iQls+vaZSUTbDe/ms+Aoh1ZOPsdpE22HxlZqoS1gAuafJlVoNlpBy2GUZnSMj6BwZsb7ZqRR1EQi9BihXxVcIqVwdaxN6dQsLjodGbG6O+jNIxdp6eyEfPdoYISHavM1qGbt4xjepgnyMLS/jHRdfqYu6h4VefG4OGzMz2AoGsbmwQM1UJI/k92tP6WvTPa2v4a1dAmJXgfgdqnGQwqQeoP0Y0PYs0DkO2L3CBvXVUGEhSisK1OxzpMnuJvn9sMty49UedkpdZLUNqnHsbg4v+2Px7GszNHRYEEIIaQyWT8ojhBDS/CgsCCGElERhQQghpCQKC0IIISVRWBBCCCmJwoIQQkhJFBaEEEJKorAghBBSUotY0CiUdAwryXUk0ioSmQTUTFLchBBCmppsdwMA2h0udLZ4INkkYYvG0TBhoaRjWNgMIaIuYyW1RuFACNl1ZLsLfskHf8teHGjd11DhUfflPu4nHuJePIhI8pH4EiGE7FqSrQXdzn0YcB2E7GA1kHqqW1iE1WVc37gDJR0XXyKEEKITaO2ue2jUPCzUjIrPNu7gQSIsvkQIIaQI2e5Cv+sgetsOiC/VRE3DYiW5imvrN6k2QQghO9TXFsCA+xAkW227nGsWFsGt+7ipfEUd14QQUqXOlj14of25mjZL1SQsglv3MbPxB7GYEELIDsl2F4Y9gzULDMsn5YUSDykoCCHEZEo6jmsbt2rWWmNpWCipGG4pX4nFhBBCTLCSXMVN5Uux2BKWhsX02gx1ZhNCiIWCWyHMx4NiseksC4vZ2D0KCkIIqYG5+NeWN0dZEhZKKob5TeuTjhBCCJDIqJiN3ROLTWVJWMzWIOUIIYTkzG8GoaRiYrFpTA8LJRVDKPFQLCbEwNvigb/FJxbXTL2PT4gV5jcXxSLTmD4FMKwuU63iMSTZJDjtkil3LoHWbgy2PwsAuKl8iXsW/oAD0EIhARXR5Jrh+LOxe5iLf63fnJCmFdwKWTa72/Q9BrdCYhFpcpJNwrBnEE67hE/XbyCaXBM30fglHwLObrFYcyv2JfxS7o7eL/ksDQvZ7sLwnkEAwMJmCNeTd+DULfvsl3wAhQV5TCQyKlaSq4bfMbOYGhaJjEpLjT9meFB0tngAAIPyM/jt6u+ErXJkuwu9bcXDYi5+D3Oxe0AmA6fdiS/qMA8nuBWC19EBp92Jubi1nYKE1NrCVqjxwyKsLotFpImJQbGSXMX02oywVXHhxHLe8OlERgVgQ3DrASuw2QAAssMN2eYCACiZOBJpFd3OLgBAJPmoYPOXZJPythGbnArJANrxE9kmU2+LB04UftDMSmpVa1rVH1NJxRFJLhveG0my3wF9f4i2jU1CRPgdkWwSOh3s+xU/N9+/qNxz4PySD7LdhURGxYNE2PBd6z8bYNx3IqMimlov+N2TxiX+jJnF1LAo9stJmo/scOOF9u/mBUUl/VHBRKhgs2ShPoOAcz8G3IcAAKFEGF2Sz9DuOhv72lALKLTy5mzsawy4DwJgNy5XigRbZ4sHwx7WNMWP/2LHd7VHXIqmVq5AzSTR2bIHw55BwzHnN4PodnZp7724/D8AoDV9KakYgokH6HcdZOck/CJ3O7u072J+M4je1gOG/bPlcu5o33sl5yA73GztIDsLBoAtEaGkc6E6vfqZ1hrQ1xbAc/J3tG058bsnjU1Jx6Fmkqb3W5g6GiqaorBoFts9rpFfZKoJimp0O7vyftAH3Ae1C1xnyx48J3+n4DZW4d+JeMy+tkDRkAHY+/pd5Z1XX1sgb//dzn1aiFZ6DmJQANnHdhYYBTbgPlQwKAD2vR5q6xGLSQOzojZoavQk0qpYRBoQb14KJcJ5d4zi3Wg1QTHY/qx21wzk7nhLUVIxfLR6DWomiefc30GfKwAA6Hb6EUkuo0934eJL3zttEl7seB7ebMBVamrlY+3vA+5D2gU+lHgIJR3Hc+5cOK0kV7W7/b62gHZ+xagZFfe3wnlNciIlFcPMxh1Eko8Md/l9bQHMxu4h4Nxf9jnwpieg+H45p00yBBqvbei3HXAfsnQgAjHXo9Tajn8XijG1ZlHql4E0hhc7WPPSgPsg+l3srhUwNyiqoZ/UqV8JQLI5AUBr4wdYE4maSUJJx/Hp+g2tfKf2O7u0Cye/yAKs6Yq7pXzF2vLT8bKWWfgoeg3XlTt5wSxa2AppTULzm0GEtnLzlTodHnTpOi1LnYO/Za/297ubuWfcz28G89q09ReV+4mHBbd12iR4HR3admT3MbVmQZrDrdgfteYM3nQTTIRMD4q78QU8UM1/fK5kz/3Y6m9Qqr1ZkR1u/H37YQAsKIp9fv1xEhkViUwir2mIU1Kxss9L3G4ltYZu7AMAOO3GZsNKzkH8DLxTn9M3VcWE5ouNdBz+7N/1Q47J7mNqzYI0Bx4EvF1zwH0Q/7DnBVODAgCiqXVE1EfaH7Oo6dx56dvfu53swroT+v4ANaPmrZi8ofv7/uxoISA7iqtAf8FO6GsOAHBA93kSabWic9D/v9PvV7JJhloSAKyk1rW/e1v26F4xvlcMM7K7FL4V2SHZ7qIfqCbBA2HYw560pW8LNyMorBRSH2pNJ4Mdz2I+HoTTLqGvbfu+g+0Mys/ownLNME49lHiIiLqM3tZuAKz9fm/LHqwk1/L6CqoRyO4/nD0W/4xKKoZI8hGcCWfZ5xBKPNT6G/T7ZZ3hxk7vaHIVSioG2eFGl+TDYPuz2jnobyDod7t5WFELNDcsHG6AJuU1DSUdNwRGMwQFAMzHFxFwdmfvqF3aRVHN7HyAhezIXUD9ks8QFtOrMQS3Quht7YZf8sFpkxBo7Uaglb2uZswZppjIqNn9sos7N5udYc5Dq5xzUNJxzMeDWpDo96tmVIij4WaUP+DFjuch2VryzkHNqLi2flO3NWl0ThN+HkWmNkOZ8QtDaosHRigRNiUoWGdzDEo6VvTibdyGHW+794nliWwz0cLmfW2bsLqcbTpi27LJf0z++/OPr6TY/INCf7hr6zexsHlf289KchWfrt/I3nUbt+X/1jcdlTIbu2f4THz/+rkqlZzDrdhXmIvf05ob1YyKm8qXuJ/I70eKqMv4KPopQrrX1IyKsLqMj6LXQLWK5tIpNCeawZbJZDJi4U7dTzzE7+gOhJCy6ScozmzcKTiJcSckm6Q1RSQyqiGAX+h4XpulPbVyhYLgMSM73BjxviQWV83UqoDYQUcIqQ8bgJFOdsHgtUclFYNf8umWCil/pBZpHvph02YyNSycNgn+Fl/e2jSEkNpKZFSEEuHsMiCugneaCybVYkhjseqm3dQ+C4DNsiWE1N/1jTuGPhC9+fgCPcfjMeS0SVUNId+OqX0WALuj4QuvEUK2J9td8Eus2SCiPrKkWUi2u9Dp8MDb4oGSjll2HFJ/+j4ws5keFkBtnn5GCCHEaKRzKG8ejVlMb4YC2IQhGkZLCCG1E9BNorSCJWHhtFU3m5YQQkj5JJukLWVvFUvCAgD6XAHTl8glhBCS7xn3IUtrFYCFYcGfL0DNUYQQYp1Aa3dNHk5lWVgAbBTGd+W/FYsJIYSYQHa4a3aNtTQsAJZ6+gfsEEIIqV6xx+xaxZKhs4XMbwZxS/lKLCaEEFIh8amWtVCzsADYEsu3Yn+05GHihBCyG/glX136g2saFgBb1Gxm/Q6tH0UIIRWQbBKecR+qSWd2ITUPCy64FcJs/GuqZRBCSAn+7BMMa9nsJKpbWHAUGoQQUli3cx/62noMT26sl7qHBRdWl/EgEUY4uYxock18mRBCHnuSTUJniwfdUhd62w7UvF9iOw0TFnpqJolHyVWoGRUrFByEkMeYbHfDaW9BZ4sHst0tvtwwGjIsCCGENBbLJ+URQghpfhQWhBBCSqKwIIQQUhKFBSGEkJIoLAghhJREYUEIIaQkCgtCCCElUVgQQggpicKCEEJISRQWhBBCSvp/LYUu7LUkt1IAAAAASUVORK5CYII=;" parent="rZsei8qSga9DJnhZ48z5-29" vertex="1">
          <mxGeometry x="210.9699999999998" y="50" width="69.03" height="90" as="geometry" />
        </mxCell>
        <mxCell id="rZsei8qSga9DJnhZ48z5-37" value="" style="group" parent="1" connectable="0" vertex="1">
          <mxGeometry x="1850" y="540" width="295" height="160" as="geometry" />
        </mxCell>
        <mxCell id="rZsei8qSga9DJnhZ48z5-38" value="" style="rounded=0;whiteSpace=wrap;html=1;" parent="rZsei8qSga9DJnhZ48z5-37" vertex="1">
          <mxGeometry width="295" height="160" as="geometry" />
        </mxCell>
        <mxCell id="rZsei8qSga9DJnhZ48z5-39" value="Print" style="text;html=1;align=right;verticalAlign=middle;whiteSpace=wrap;rounded=0;" parent="rZsei8qSga9DJnhZ48z5-37" vertex="1">
          <mxGeometry x="110" y="10" width="170" height="30" as="geometry" />
        </mxCell>
        <mxCell id="rZsei8qSga9DJnhZ48z5-40" value="005" style="text;html=1;align=left;verticalAlign=middle;whiteSpace=wrap;rounded=0;fontSize=23;" parent="rZsei8qSga9DJnhZ48z5-37" vertex="1">
          <mxGeometry x="15" y="20" width="86" height="20" as="geometry" />
        </mxCell>
        <mxCell id="rZsei8qSga9DJnhZ48z5-41" value="Cancel -" style="text;html=1;align=left;verticalAlign=middle;whiteSpace=wrap;rounded=0;fontColor=#CC6600;" parent="rZsei8qSga9DJnhZ48z5-37" vertex="1">
          <mxGeometry x="20" y="80" width="170" height="30" as="geometry" />
        </mxCell>
        <mxCell id="rZsei8qSga9DJnhZ48z5-42" value="Timeout -" style="text;html=1;align=left;verticalAlign=middle;whiteSpace=wrap;rounded=0;fontColor=#990000;" parent="rZsei8qSga9DJnhZ48z5-37" vertex="1">
          <mxGeometry x="20" y="100" width="170" height="30" as="geometry" />
        </mxCell>
        <mxCell id="rZsei8qSga9DJnhZ48z5-43" value="HardwareFault 321" style="text;html=1;align=left;verticalAlign=middle;whiteSpace=wrap;rounded=0;fontColor=#990000;" parent="rZsei8qSga9DJnhZ48z5-37" vertex="1">
          <mxGeometry x="20" y="120" width="170" height="30" as="geometry" />
        </mxCell>
        <mxCell id="rZsei8qSga9DJnhZ48z5-48" style="edgeStyle=orthogonalEdgeStyle;rounded=0;orthogonalLoop=1;jettySize=auto;html=1;entryX=0;entryY=0.5;entryDx=0;entryDy=0;" parent="1" source="rZsei8qSga9DJnhZ48z5-30" target="rZsei8qSga9DJnhZ48z5-38" edge="1">
          <mxGeometry relative="1" as="geometry" />
        </mxCell>
        <mxCell id="rZsei8qSga9DJnhZ48z5-49" style="edgeStyle=orthogonalEdgeStyle;rounded=0;orthogonalLoop=1;jettySize=auto;html=1;entryX=0.015;entryY=0.821;entryDx=0;entryDy=0;entryPerimeter=0;" parent="1" source="rZsei8qSga9DJnhZ48z5-38" target="XVMjXSrSxOzAq-W35Vz7-60" edge="1">
          <mxGeometry relative="1" as="geometry">
            <mxPoint x="2250" y="510" as="targetPoint" />
            <Array as="points">
              <mxPoint x="2590" y="620" />
              <mxPoint x="2590" y="441" />
            </Array>
          </mxGeometry>
        </mxCell>
        <mxCell id="rZsei8qSga9DJnhZ48z5-50" style="edgeStyle=orthogonalEdgeStyle;rounded=0;orthogonalLoop=1;jettySize=auto;html=1;entryX=0;entryY=0.5;entryDx=0;entryDy=0;" parent="1" source="rZsei8qSga9DJnhZ48z5-11" target="rZsei8qSga9DJnhZ48z5-30" edge="1">
          <mxGeometry relative="1" as="geometry" />
        </mxCell>
        <mxCell id="rZsei8qSga9DJnhZ48z5-52" style="edgeStyle=orthogonalEdgeStyle;rounded=0;orthogonalLoop=1;jettySize=auto;html=1;entryX=0;entryY=0.5;entryDx=0;entryDy=0;" parent="1" source="XVMjXSrSxOzAq-W35Vz7-41" target="XVMjXSrSxOzAq-W35Vz7-60" edge="1">
          <mxGeometry relative="1" as="geometry" />
        </mxCell>
        <mxCell id="rZsei8qSga9DJnhZ48z5-54" value="" style="group;fillColor=#66B2FF;" parent="1" vertex="1" connectable="0">
          <mxGeometry x="20" y="590" width="295" height="160" as="geometry" />
        </mxCell>
        <mxCell id="rZsei8qSga9DJnhZ48z5-55" value="" style="rounded=0;whiteSpace=wrap;html=1;fillColor=#f5f5f5;strokeColor=#666666;fontColor=#333333;" parent="rZsei8qSga9DJnhZ48z5-54" vertex="1">
          <mxGeometry width="295" height="160" as="geometry" />
        </mxCell>
        <mxCell id="rZsei8qSga9DJnhZ48z5-56" value="Supervisor" style="text;html=1;align=right;verticalAlign=middle;whiteSpace=wrap;rounded=0;" parent="rZsei8qSga9DJnhZ48z5-54" vertex="1">
          <mxGeometry x="110" y="10" width="170" height="30" as="geometry" />
        </mxCell>
        <mxCell id="rZsei8qSga9DJnhZ48z5-57" value="200" style="text;html=1;align=left;verticalAlign=middle;whiteSpace=wrap;rounded=0;fontSize=23;" parent="rZsei8qSga9DJnhZ48z5-54" vertex="1">
          <mxGeometry x="15" y="20" width="86" height="20" as="geometry" />
        </mxCell>
        <mxCell id="rZsei8qSga9DJnhZ48z5-58" value="Cancel 322" style="text;html=1;align=left;verticalAlign=middle;whiteSpace=wrap;rounded=0;fontColor=#CC6600;" parent="rZsei8qSga9DJnhZ48z5-54" vertex="1">
          <mxGeometry x="20" y="80" width="170" height="30" as="geometry" />
        </mxCell>
        <mxCell id="rZsei8qSga9DJnhZ48z5-59" value="Timeout 324" style="text;html=1;align=left;verticalAlign=middle;whiteSpace=wrap;rounded=0;fontColor=#990000;" parent="rZsei8qSga9DJnhZ48z5-54" vertex="1">
          <mxGeometry x="20" y="100" width="170" height="30" as="geometry" />
        </mxCell>
        <mxCell id="rZsei8qSga9DJnhZ48z5-60" value="DeviceError 323" style="text;html=1;align=left;verticalAlign=middle;whiteSpace=wrap;rounded=0;fontColor=#990000;" parent="rZsei8qSga9DJnhZ48z5-54" vertex="1">
          <mxGeometry x="20" y="120" width="170" height="30" as="geometry" />
        </mxCell>
        <mxCell id="rZsei8qSga9DJnhZ48z5-61" style="edgeStyle=orthogonalEdgeStyle;rounded=0;orthogonalLoop=1;jettySize=auto;html=1;" parent="1" source="XVMjXSrSxOzAq-W35Vz7-4" target="rZsei8qSga9DJnhZ48z5-55" edge="1">
          <mxGeometry relative="1" as="geometry" />
        </mxCell>
        <mxCell id="rZsei8qSga9DJnhZ48z5-62" value="" style="group;fillColor=#66B2FF;" parent="1" vertex="1" connectable="0">
          <mxGeometry x="980" y="330" width="295" height="160" as="geometry" />
        </mxCell>
        <mxCell id="rZsei8qSga9DJnhZ48z5-63" value="" style="rounded=0;whiteSpace=wrap;html=1;fillColor=#f5f5f5;strokeColor=#666666;fontColor=#333333;" parent="rZsei8qSga9DJnhZ48z5-62" vertex="1">
          <mxGeometry width="295" height="160" as="geometry" />
        </mxCell>
        <mxCell id="rZsei8qSga9DJnhZ48z5-64" value="Configuration" style="text;html=1;align=right;verticalAlign=middle;whiteSpace=wrap;rounded=0;" parent="rZsei8qSga9DJnhZ48z5-62" vertex="1">
          <mxGeometry x="110" y="10" width="170" height="30" as="geometry" />
        </mxCell>
        <mxCell id="rZsei8qSga9DJnhZ48z5-65" value="201" style="text;html=1;align=left;verticalAlign=middle;whiteSpace=wrap;rounded=0;fontSize=23;" parent="rZsei8qSga9DJnhZ48z5-62" vertex="1">
          <mxGeometry x="15" y="20" width="86" height="20" as="geometry" />
        </mxCell>
        <mxCell id="rZsei8qSga9DJnhZ48z5-66" value="Cancel 322" style="text;html=1;align=left;verticalAlign=middle;whiteSpace=wrap;rounded=0;fontColor=#CC6600;" parent="rZsei8qSga9DJnhZ48z5-62" vertex="1">
          <mxGeometry x="20" y="80" width="170" height="30" as="geometry" />
        </mxCell>
        <mxCell id="rZsei8qSga9DJnhZ48z5-67" value="Timeout 324" style="text;html=1;align=left;verticalAlign=middle;whiteSpace=wrap;rounded=0;fontColor=#990000;" parent="rZsei8qSga9DJnhZ48z5-62" vertex="1">
          <mxGeometry x="20" y="100" width="170" height="30" as="geometry" />
        </mxCell>
        <mxCell id="rZsei8qSga9DJnhZ48z5-68" value="DeviceError 323" style="text;html=1;align=left;verticalAlign=middle;whiteSpace=wrap;rounded=0;fontColor=#990000;" parent="rZsei8qSga9DJnhZ48z5-62" vertex="1">
          <mxGeometry x="20" y="120" width="170" height="30" as="geometry" />
        </mxCell>
        <mxCell id="rZsei8qSga9DJnhZ48z5-69" style="edgeStyle=orthogonalEdgeStyle;rounded=0;orthogonalLoop=1;jettySize=auto;html=1;entryX=0.5;entryY=0;entryDx=0;entryDy=0;" parent="1" source="rZsei8qSga9DJnhZ48z5-3" target="rZsei8qSga9DJnhZ48z5-63" edge="1">
          <mxGeometry relative="1" as="geometry" />
        </mxCell>
        <mxCell id="rZsei8qSga9DJnhZ48z5-70" style="edgeStyle=orthogonalEdgeStyle;rounded=0;orthogonalLoop=1;jettySize=auto;html=1;entryX=0.5;entryY=1;entryDx=0;entryDy=0;" parent="1" source="rZsei8qSga9DJnhZ48z5-11" target="rZsei8qSga9DJnhZ48z5-63" edge="1">
          <mxGeometry relative="1" as="geometry" />
        </mxCell>
        <mxCell id="R4sTBF6m8Mre15xHHo0--2" value="" style="group" connectable="0" vertex="1" parent="1">
          <mxGeometry x="2230" y="540" width="295" height="160" as="geometry" />
        </mxCell>
        <mxCell id="R4sTBF6m8Mre15xHHo0--3" value="" style="rounded=0;whiteSpace=wrap;html=1;" vertex="1" parent="R4sTBF6m8Mre15xHHo0--2">
          <mxGeometry width="295" height="160" as="geometry" />
        </mxCell>
        <mxCell id="R4sTBF6m8Mre15xHHo0--4" value="EightFDK" style="text;html=1;align=right;verticalAlign=middle;whiteSpace=wrap;rounded=0;" vertex="1" parent="R4sTBF6m8Mre15xHHo0--2">
          <mxGeometry x="110" y="10" width="170" height="30" as="geometry" />
        </mxCell>
        <mxCell id="R4sTBF6m8Mre15xHHo0--5" value="005" style="text;html=1;align=left;verticalAlign=middle;whiteSpace=wrap;rounded=0;fontSize=23;" vertex="1" parent="R4sTBF6m8Mre15xHHo0--2">
          <mxGeometry x="15" y="20" width="86" height="20" as="geometry" />
        </mxCell>
        <mxCell id="R4sTBF6m8Mre15xHHo0--6" value="Cancel -" style="text;html=1;align=left;verticalAlign=middle;whiteSpace=wrap;rounded=0;fontColor=#CC6600;" vertex="1" parent="R4sTBF6m8Mre15xHHo0--2">
          <mxGeometry x="20" y="80" width="170" height="30" as="geometry" />
        </mxCell>
        <mxCell id="R4sTBF6m8Mre15xHHo0--7" value="Timeout -" style="text;html=1;align=left;verticalAlign=middle;whiteSpace=wrap;rounded=0;fontColor=#990000;" vertex="1" parent="R4sTBF6m8Mre15xHHo0--2">
          <mxGeometry x="20" y="100" width="170" height="30" as="geometry" />
        </mxCell>
        <mxCell id="R4sTBF6m8Mre15xHHo0--8" value="HardwareFault 321" style="text;html=1;align=left;verticalAlign=middle;whiteSpace=wrap;rounded=0;fontColor=#990000;" vertex="1" parent="R4sTBF6m8Mre15xHHo0--2">
          <mxGeometry x="20" y="120" width="170" height="30" as="geometry" />
        </mxCell>
        <mxCell id="R4sTBF6m8Mre15xHHo0--10" value="" style="group" vertex="1" connectable="0" parent="1">
          <mxGeometry x="1430" y="330" width="295" height="160" as="geometry" />
        </mxCell>
        <mxCell id="R4sTBF6m8Mre15xHHo0--11" value="" style="rounded=0;whiteSpace=wrap;html=1;" vertex="1" parent="R4sTBF6m8Mre15xHHo0--10">
          <mxGeometry width="295" height="160" as="geometry" />
        </mxCell>
        <mxCell id="R4sTBF6m8Mre15xHHo0--12" value="TransactionMenu" style="text;html=1;align=right;verticalAlign=middle;whiteSpace=wrap;rounded=0;" vertex="1" parent="R4sTBF6m8Mre15xHHo0--10">
          <mxGeometry x="110" y="10" width="170" height="30" as="geometry" />
        </mxCell>
        <mxCell id="R4sTBF6m8Mre15xHHo0--13" value="001" style="text;html=1;align=left;verticalAlign=middle;whiteSpace=wrap;rounded=0;fontSize=23;" vertex="1" parent="R4sTBF6m8Mre15xHHo0--10">
          <mxGeometry x="15" y="20" width="86" height="20" as="geometry" />
        </mxCell>
        <mxCell id="R4sTBF6m8Mre15xHHo0--14" value="Cancel 322" style="text;html=1;align=left;verticalAlign=middle;whiteSpace=wrap;rounded=0;fontColor=#CC6600;" vertex="1" parent="R4sTBF6m8Mre15xHHo0--10">
          <mxGeometry x="20" y="80" width="170" height="30" as="geometry" />
        </mxCell>
        <mxCell id="R4sTBF6m8Mre15xHHo0--15" value="Timeout 324" style="text;html=1;align=left;verticalAlign=middle;whiteSpace=wrap;rounded=0;fontColor=#990000;" vertex="1" parent="R4sTBF6m8Mre15xHHo0--10">
          <mxGeometry x="20" y="100" width="170" height="30" as="geometry" />
        </mxCell>
        <mxCell id="R4sTBF6m8Mre15xHHo0--16" value="DeviceError 323" style="text;html=1;align=left;verticalAlign=middle;whiteSpace=wrap;rounded=0;fontColor=#990000;" vertex="1" parent="R4sTBF6m8Mre15xHHo0--10">
          <mxGeometry x="20" y="120" width="170" height="30" as="geometry" />
        </mxCell>
        <mxCell id="R4sTBF6m8Mre15xHHo0--21" style="edgeStyle=orthogonalEdgeStyle;rounded=0;orthogonalLoop=1;jettySize=auto;html=1;entryX=0.5;entryY=1;entryDx=0;entryDy=0;" edge="1" parent="1" source="R4sTBF6m8Mre15xHHo0--11" target="rZsei8qSga9DJnhZ48z5-21">
          <mxGeometry relative="1" as="geometry" />
        </mxCell>
        <mxCell id="R4sTBF6m8Mre15xHHo0--22" style="edgeStyle=orthogonalEdgeStyle;rounded=0;orthogonalLoop=1;jettySize=auto;html=1;entryX=0.5;entryY=0;entryDx=0;entryDy=0;" edge="1" parent="1" source="R4sTBF6m8Mre15xHHo0--11" target="rZsei8qSga9DJnhZ48z5-30">
          <mxGeometry relative="1" as="geometry" />
        </mxCell>
        <mxCell id="R4sTBF6m8Mre15xHHo0--24" style="edgeStyle=orthogonalEdgeStyle;rounded=0;orthogonalLoop=1;jettySize=auto;html=1;entryX=0.75;entryY=1;entryDx=0;entryDy=0;" edge="1" parent="1" source="R4sTBF6m8Mre15xHHo0--3" target="R4sTBF6m8Mre15xHHo0--11">
          <mxGeometry relative="1" as="geometry">
            <Array as="points">
              <mxPoint x="2378" y="520" />
              <mxPoint x="1651" y="520" />
            </Array>
          </mxGeometry>
        </mxCell>
        <mxCell id="R4sTBF6m8Mre15xHHo0--25" value="* Ya logueado" style="text;html=1;align=center;verticalAlign=middle;whiteSpace=wrap;rounded=0;fontFamily=Comic Sans MS;fontColor=#FF8000;fontStyle=1;fontSize=14;" vertex="1" parent="1">
          <mxGeometry x="1740" y="375" width="100" height="30" as="geometry" />
        </mxCell>
        <mxCell id="R4sTBF6m8Mre15xHHo0--26" value="¿Desea seguir operando?" style="text;html=1;align=center;verticalAlign=middle;whiteSpace=wrap;rounded=0;fontFamily=Comic Sans MS;fontColor=#FF8000;fontStyle=1;fontSize=14;" vertex="1" parent="1">
          <mxGeometry x="2330" y="720" width="100" height="30" as="geometry" />
        </mxCell>
        <mxCell id="R4sTBF6m8Mre15xHHo0--27" value="No" style="text;html=1;align=center;verticalAlign=middle;whiteSpace=wrap;rounded=0;fontFamily=Comic Sans MS;fontColor=#FF8000;fontStyle=1;fontSize=14;" vertex="1" parent="1">
          <mxGeometry x="2530" y="585" width="50" height="30" as="geometry" />
        </mxCell>
        <mxCell id="R4sTBF6m8Mre15xHHo0--28" value="Sí" style="text;html=1;align=center;verticalAlign=middle;whiteSpace=wrap;rounded=0;fontFamily=Comic Sans MS;fontColor=#FF8000;fontStyle=1;fontSize=14;" vertex="1" parent="1">
          <mxGeometry x="2320" y="485" width="50" height="30" as="geometry" />
        </mxCell>
      </root>
    </mxGraphModel>
  </diagram>
</mxfile>
